<?xml version="1.0" encoding="utf-8" standalone="no"?>
<!DOCTYPE svg PUBLIC "-//W3C//DTD SVG 1.1//EN"
  "http://www.w3.org/Graphics/SVG/1.1/DTD/svg11.dtd">
<svg xmlns:xlink="http://www.w3.org/1999/xlink" width="864pt" height="576pt" viewBox="0 0 864 576" xmlns="http://www.w3.org/2000/svg" version="1.1">
 <metadata>
  <rdf:RDF xmlns:dc="http://purl.org/dc/elements/1.1/" xmlns:cc="http://creativecommons.org/ns#" xmlns:rdf="http://www.w3.org/1999/02/22-rdf-syntax-ns#">
   <cc:Work>
    <dc:type rdf:resource="http://purl.org/dc/dcmitype/StillImage"/>
    <dc:date>2025-05-24T19:32:01.574982</dc:date>
    <dc:format>image/svg+xml</dc:format>
    <dc:creator>
     <cc:Agent>
      <dc:title>Matplotlib v3.10.3, https://matplotlib.org/</dc:title>
     </cc:Agent>
    </dc:creator>
   </cc:Work>
  </rdf:RDF>
 </metadata>
 <defs>
  <style type="text/css">*{stroke-linejoin: round; stroke-linecap: butt}</style>
 </defs>
 <g id="figure_1">
  <g id="patch_1">
   <path d="M 0 576 
L 864 576 
L 864 0 
L 0 0 
z
" style="fill: #ffffff"/>
  </g>
  <g id="axes_1">
   <g id="patch_2">
    <path d="M 54.47 530.44 
L 853.2 530.44 
L 853.2 28.32 
L 54.47 28.32 
z
" style="fill: #ffffff"/>
   </g>
   <g id="matplotlib.axis_1">
    <g id="xtick_1">
     <g id="line2d_1">
      <path d="M 90.775909 530.44 
L 90.775909 28.32 
" clip-path="url(#p70a9bb3922)" style="fill: none; stroke-dasharray: 2.96,1.28; stroke-dashoffset: 0; stroke: #b0b0b0; stroke-opacity: 0.6; stroke-width: 0.8"/>
     </g>
     <g id="line2d_2">
      <defs>
       <path id="ma36ef1d5ce" d="M 0 0 
L 0 3.5 
" style="stroke: #000000; stroke-width: 0.8"/>
      </defs>
      <g>
       <use xlink:href="#ma36ef1d5ce" x="90.775909" y="530.44" style="stroke: #000000; stroke-width: 0.8"/>
      </g>
     </g>
     <g id="text_1">
      <!-- 0 -->
      <g transform="translate(87.594659 545.038437) scale(0.1 -0.1)">
       <defs>
        <path id="DejaVuSans-30" d="M 2034 4250 
Q 1547 4250 1301 3770 
Q 1056 3291 1056 2328 
Q 1056 1369 1301 889 
Q 1547 409 2034 409 
Q 2525 409 2770 889 
Q 3016 1369 3016 2328 
Q 3016 3291 2770 3770 
Q 2525 4250 2034 4250 
z
M 2034 4750 
Q 2819 4750 3233 4129 
Q 3647 3509 3647 2328 
Q 3647 1150 3233 529 
Q 2819 -91 2034 -91 
Q 1250 -91 836 529 
Q 422 1150 422 2328 
Q 422 3509 836 4129 
Q 1250 4750 2034 4750 
z
" transform="scale(0.015625)"/>
       </defs>
       <use xlink:href="#DejaVuSans-30"/>
      </g>
     </g>
    </g>
    <g id="xtick_2">
     <g id="line2d_3">
      <path d="M 235.999545 530.44 
L 235.999545 28.32 
" clip-path="url(#p70a9bb3922)" style="fill: none; stroke-dasharray: 2.96,1.28; stroke-dashoffset: 0; stroke: #b0b0b0; stroke-opacity: 0.6; stroke-width: 0.8"/>
     </g>
     <g id="line2d_4">
      <g>
       <use xlink:href="#ma36ef1d5ce" x="235.999545" y="530.44" style="stroke: #000000; stroke-width: 0.8"/>
      </g>
     </g>
     <g id="text_2">
      <!-- 20 -->
      <g transform="translate(229.637045 545.038437) scale(0.1 -0.1)">
       <defs>
        <path id="DejaVuSans-32" d="M 1228 531 
L 3431 531 
L 3431 0 
L 469 0 
L 469 531 
Q 828 903 1448 1529 
Q 2069 2156 2228 2338 
Q 2531 2678 2651 2914 
Q 2772 3150 2772 3378 
Q 2772 3750 2511 3984 
Q 2250 4219 1831 4219 
Q 1534 4219 1204 4116 
Q 875 4013 500 3803 
L 500 4441 
Q 881 4594 1212 4672 
Q 1544 4750 1819 4750 
Q 2544 4750 2975 4387 
Q 3406 4025 3406 3419 
Q 3406 3131 3298 2873 
Q 3191 2616 2906 2266 
Q 2828 2175 2409 1742 
Q 1991 1309 1228 531 
z
" transform="scale(0.015625)"/>
       </defs>
       <use xlink:href="#DejaVuSans-32"/>
       <use xlink:href="#DejaVuSans-30" transform="translate(63.623047 0)"/>
      </g>
     </g>
    </g>
    <g id="xtick_3">
     <g id="line2d_5">
      <path d="M 381.223182 530.44 
L 381.223182 28.32 
" clip-path="url(#p70a9bb3922)" style="fill: none; stroke-dasharray: 2.96,1.28; stroke-dashoffset: 0; stroke: #b0b0b0; stroke-opacity: 0.6; stroke-width: 0.8"/>
     </g>
     <g id="line2d_6">
      <g>
       <use xlink:href="#ma36ef1d5ce" x="381.223182" y="530.44" style="stroke: #000000; stroke-width: 0.8"/>
      </g>
     </g>
     <g id="text_3">
      <!-- 40 -->
      <g transform="translate(374.860682 545.038437) scale(0.1 -0.1)">
       <defs>
        <path id="DejaVuSans-34" d="M 2419 4116 
L 825 1625 
L 2419 1625 
L 2419 4116 
z
M 2253 4666 
L 3047 4666 
L 3047 1625 
L 3713 1625 
L 3713 1100 
L 3047 1100 
L 3047 0 
L 2419 0 
L 2419 1100 
L 313 1100 
L 313 1709 
L 2253 4666 
z
" transform="scale(0.015625)"/>
       </defs>
       <use xlink:href="#DejaVuSans-34"/>
       <use xlink:href="#DejaVuSans-30" transform="translate(63.623047 0)"/>
      </g>
     </g>
    </g>
    <g id="xtick_4">
     <g id="line2d_7">
      <path d="M 526.446818 530.44 
L 526.446818 28.32 
" clip-path="url(#p70a9bb3922)" style="fill: none; stroke-dasharray: 2.96,1.28; stroke-dashoffset: 0; stroke: #b0b0b0; stroke-opacity: 0.6; stroke-width: 0.8"/>
     </g>
     <g id="line2d_8">
      <g>
       <use xlink:href="#ma36ef1d5ce" x="526.446818" y="530.44" style="stroke: #000000; stroke-width: 0.8"/>
      </g>
     </g>
     <g id="text_4">
      <!-- 60 -->
      <g transform="translate(520.084318 545.038437) scale(0.1 -0.1)">
       <defs>
        <path id="DejaVuSans-36" d="M 2113 2584 
Q 1688 2584 1439 2293 
Q 1191 2003 1191 1497 
Q 1191 994 1439 701 
Q 1688 409 2113 409 
Q 2538 409 2786 701 
Q 3034 994 3034 1497 
Q 3034 2003 2786 2293 
Q 2538 2584 2113 2584 
z
M 3366 4563 
L 3366 3988 
Q 3128 4100 2886 4159 
Q 2644 4219 2406 4219 
Q 1781 4219 1451 3797 
Q 1122 3375 1075 2522 
Q 1259 2794 1537 2939 
Q 1816 3084 2150 3084 
Q 2853 3084 3261 2657 
Q 3669 2231 3669 1497 
Q 3669 778 3244 343 
Q 2819 -91 2113 -91 
Q 1303 -91 875 529 
Q 447 1150 447 2328 
Q 447 3434 972 4092 
Q 1497 4750 2381 4750 
Q 2619 4750 2861 4703 
Q 3103 4656 3366 4563 
z
" transform="scale(0.015625)"/>
       </defs>
       <use xlink:href="#DejaVuSans-36"/>
       <use xlink:href="#DejaVuSans-30" transform="translate(63.623047 0)"/>
      </g>
     </g>
    </g>
    <g id="xtick_5">
     <g id="line2d_9">
      <path d="M 671.670455 530.44 
L 671.670455 28.32 
" clip-path="url(#p70a9bb3922)" style="fill: none; stroke-dasharray: 2.96,1.28; stroke-dashoffset: 0; stroke: #b0b0b0; stroke-opacity: 0.6; stroke-width: 0.8"/>
     </g>
     <g id="line2d_10">
      <g>
       <use xlink:href="#ma36ef1d5ce" x="671.670455" y="530.44" style="stroke: #000000; stroke-width: 0.8"/>
      </g>
     </g>
     <g id="text_5">
      <!-- 80 -->
      <g transform="translate(665.307955 545.038437) scale(0.1 -0.1)">
       <defs>
        <path id="DejaVuSans-38" d="M 2034 2216 
Q 1584 2216 1326 1975 
Q 1069 1734 1069 1313 
Q 1069 891 1326 650 
Q 1584 409 2034 409 
Q 2484 409 2743 651 
Q 3003 894 3003 1313 
Q 3003 1734 2745 1975 
Q 2488 2216 2034 2216 
z
M 1403 2484 
Q 997 2584 770 2862 
Q 544 3141 544 3541 
Q 544 4100 942 4425 
Q 1341 4750 2034 4750 
Q 2731 4750 3128 4425 
Q 3525 4100 3525 3541 
Q 3525 3141 3298 2862 
Q 3072 2584 2669 2484 
Q 3125 2378 3379 2068 
Q 3634 1759 3634 1313 
Q 3634 634 3220 271 
Q 2806 -91 2034 -91 
Q 1263 -91 848 271 
Q 434 634 434 1313 
Q 434 1759 690 2068 
Q 947 2378 1403 2484 
z
M 1172 3481 
Q 1172 3119 1398 2916 
Q 1625 2713 2034 2713 
Q 2441 2713 2670 2916 
Q 2900 3119 2900 3481 
Q 2900 3844 2670 4047 
Q 2441 4250 2034 4250 
Q 1625 4250 1398 4047 
Q 1172 3844 1172 3481 
z
" transform="scale(0.015625)"/>
       </defs>
       <use xlink:href="#DejaVuSans-38"/>
       <use xlink:href="#DejaVuSans-30" transform="translate(63.623047 0)"/>
      </g>
     </g>
    </g>
    <g id="xtick_6">
     <g id="line2d_11">
      <path d="M 816.894091 530.44 
L 816.894091 28.32 
" clip-path="url(#p70a9bb3922)" style="fill: none; stroke-dasharray: 2.96,1.28; stroke-dashoffset: 0; stroke: #b0b0b0; stroke-opacity: 0.6; stroke-width: 0.8"/>
     </g>
     <g id="line2d_12">
      <g>
       <use xlink:href="#ma36ef1d5ce" x="816.894091" y="530.44" style="stroke: #000000; stroke-width: 0.8"/>
      </g>
     </g>
     <g id="text_6">
      <!-- 100 -->
      <g transform="translate(807.350341 545.038437) scale(0.1 -0.1)">
       <defs>
        <path id="DejaVuSans-31" d="M 794 531 
L 1825 531 
L 1825 4091 
L 703 3866 
L 703 4441 
L 1819 4666 
L 2450 4666 
L 2450 531 
L 3481 531 
L 3481 0 
L 794 0 
L 794 531 
z
" transform="scale(0.015625)"/>
       </defs>
       <use xlink:href="#DejaVuSans-31"/>
       <use xlink:href="#DejaVuSans-30" transform="translate(63.623047 0)"/>
       <use xlink:href="#DejaVuSans-30" transform="translate(127.246094 0)"/>
      </g>
     </g>
    </g>
    <g id="text_7">
     <!-- Perceptual Brightness (%) -->
     <g transform="translate(362.977188 561.755937) scale(0.14 -0.14)">
      <defs>
       <path id="DejaVuSans-50" d="M 1259 4147 
L 1259 2394 
L 2053 2394 
Q 2494 2394 2734 2622 
Q 2975 2850 2975 3272 
Q 2975 3691 2734 3919 
Q 2494 4147 2053 4147 
L 1259 4147 
z
M 628 4666 
L 2053 4666 
Q 2838 4666 3239 4311 
Q 3641 3956 3641 3272 
Q 3641 2581 3239 2228 
Q 2838 1875 2053 1875 
L 1259 1875 
L 1259 0 
L 628 0 
L 628 4666 
z
" transform="scale(0.015625)"/>
       <path id="DejaVuSans-65" d="M 3597 1894 
L 3597 1613 
L 953 1613 
Q 991 1019 1311 708 
Q 1631 397 2203 397 
Q 2534 397 2845 478 
Q 3156 559 3463 722 
L 3463 178 
Q 3153 47 2828 -22 
Q 2503 -91 2169 -91 
Q 1331 -91 842 396 
Q 353 884 353 1716 
Q 353 2575 817 3079 
Q 1281 3584 2069 3584 
Q 2775 3584 3186 3129 
Q 3597 2675 3597 1894 
z
M 3022 2063 
Q 3016 2534 2758 2815 
Q 2500 3097 2075 3097 
Q 1594 3097 1305 2825 
Q 1016 2553 972 2059 
L 3022 2063 
z
" transform="scale(0.015625)"/>
       <path id="DejaVuSans-72" d="M 2631 2963 
Q 2534 3019 2420 3045 
Q 2306 3072 2169 3072 
Q 1681 3072 1420 2755 
Q 1159 2438 1159 1844 
L 1159 0 
L 581 0 
L 581 3500 
L 1159 3500 
L 1159 2956 
Q 1341 3275 1631 3429 
Q 1922 3584 2338 3584 
Q 2397 3584 2469 3576 
Q 2541 3569 2628 3553 
L 2631 2963 
z
" transform="scale(0.015625)"/>
       <path id="DejaVuSans-63" d="M 3122 3366 
L 3122 2828 
Q 2878 2963 2633 3030 
Q 2388 3097 2138 3097 
Q 1578 3097 1268 2742 
Q 959 2388 959 1747 
Q 959 1106 1268 751 
Q 1578 397 2138 397 
Q 2388 397 2633 464 
Q 2878 531 3122 666 
L 3122 134 
Q 2881 22 2623 -34 
Q 2366 -91 2075 -91 
Q 1284 -91 818 406 
Q 353 903 353 1747 
Q 353 2603 823 3093 
Q 1294 3584 2113 3584 
Q 2378 3584 2631 3529 
Q 2884 3475 3122 3366 
z
" transform="scale(0.015625)"/>
       <path id="DejaVuSans-70" d="M 1159 525 
L 1159 -1331 
L 581 -1331 
L 581 3500 
L 1159 3500 
L 1159 2969 
Q 1341 3281 1617 3432 
Q 1894 3584 2278 3584 
Q 2916 3584 3314 3078 
Q 3713 2572 3713 1747 
Q 3713 922 3314 415 
Q 2916 -91 2278 -91 
Q 1894 -91 1617 61 
Q 1341 213 1159 525 
z
M 3116 1747 
Q 3116 2381 2855 2742 
Q 2594 3103 2138 3103 
Q 1681 3103 1420 2742 
Q 1159 2381 1159 1747 
Q 1159 1113 1420 752 
Q 1681 391 2138 391 
Q 2594 391 2855 752 
Q 3116 1113 3116 1747 
z
" transform="scale(0.015625)"/>
       <path id="DejaVuSans-74" d="M 1172 4494 
L 1172 3500 
L 2356 3500 
L 2356 3053 
L 1172 3053 
L 1172 1153 
Q 1172 725 1289 603 
Q 1406 481 1766 481 
L 2356 481 
L 2356 0 
L 1766 0 
Q 1100 0 847 248 
Q 594 497 594 1153 
L 594 3053 
L 172 3053 
L 172 3500 
L 594 3500 
L 594 4494 
L 1172 4494 
z
" transform="scale(0.015625)"/>
       <path id="DejaVuSans-75" d="M 544 1381 
L 544 3500 
L 1119 3500 
L 1119 1403 
Q 1119 906 1312 657 
Q 1506 409 1894 409 
Q 2359 409 2629 706 
Q 2900 1003 2900 1516 
L 2900 3500 
L 3475 3500 
L 3475 0 
L 2900 0 
L 2900 538 
Q 2691 219 2414 64 
Q 2138 -91 1772 -91 
Q 1169 -91 856 284 
Q 544 659 544 1381 
z
M 1991 3584 
L 1991 3584 
z
" transform="scale(0.015625)"/>
       <path id="DejaVuSans-61" d="M 2194 1759 
Q 1497 1759 1228 1600 
Q 959 1441 959 1056 
Q 959 750 1161 570 
Q 1363 391 1709 391 
Q 2188 391 2477 730 
Q 2766 1069 2766 1631 
L 2766 1759 
L 2194 1759 
z
M 3341 1997 
L 3341 0 
L 2766 0 
L 2766 531 
Q 2569 213 2275 61 
Q 1981 -91 1556 -91 
Q 1019 -91 701 211 
Q 384 513 384 1019 
Q 384 1609 779 1909 
Q 1175 2209 1959 2209 
L 2766 2209 
L 2766 2266 
Q 2766 2663 2505 2880 
Q 2244 3097 1772 3097 
Q 1472 3097 1187 3025 
Q 903 2953 641 2809 
L 641 3341 
Q 956 3463 1253 3523 
Q 1550 3584 1831 3584 
Q 2591 3584 2966 3190 
Q 3341 2797 3341 1997 
z
" transform="scale(0.015625)"/>
       <path id="DejaVuSans-6c" d="M 603 4863 
L 1178 4863 
L 1178 0 
L 603 0 
L 603 4863 
z
" transform="scale(0.015625)"/>
       <path id="DejaVuSans-20" transform="scale(0.015625)"/>
       <path id="DejaVuSans-42" d="M 1259 2228 
L 1259 519 
L 2272 519 
Q 2781 519 3026 730 
Q 3272 941 3272 1375 
Q 3272 1813 3026 2020 
Q 2781 2228 2272 2228 
L 1259 2228 
z
M 1259 4147 
L 1259 2741 
L 2194 2741 
Q 2656 2741 2882 2914 
Q 3109 3088 3109 3444 
Q 3109 3797 2882 3972 
Q 2656 4147 2194 4147 
L 1259 4147 
z
M 628 4666 
L 2241 4666 
Q 2963 4666 3353 4366 
Q 3744 4066 3744 3513 
Q 3744 3084 3544 2831 
Q 3344 2578 2956 2516 
Q 3422 2416 3680 2098 
Q 3938 1781 3938 1306 
Q 3938 681 3513 340 
Q 3088 0 2303 0 
L 628 0 
L 628 4666 
z
" transform="scale(0.015625)"/>
       <path id="DejaVuSans-69" d="M 603 3500 
L 1178 3500 
L 1178 0 
L 603 0 
L 603 3500 
z
M 603 4863 
L 1178 4863 
L 1178 4134 
L 603 4134 
L 603 4863 
z
" transform="scale(0.015625)"/>
       <path id="DejaVuSans-67" d="M 2906 1791 
Q 2906 2416 2648 2759 
Q 2391 3103 1925 3103 
Q 1463 3103 1205 2759 
Q 947 2416 947 1791 
Q 947 1169 1205 825 
Q 1463 481 1925 481 
Q 2391 481 2648 825 
Q 2906 1169 2906 1791 
z
M 3481 434 
Q 3481 -459 3084 -895 
Q 2688 -1331 1869 -1331 
Q 1566 -1331 1297 -1286 
Q 1028 -1241 775 -1147 
L 775 -588 
Q 1028 -725 1275 -790 
Q 1522 -856 1778 -856 
Q 2344 -856 2625 -561 
Q 2906 -266 2906 331 
L 2906 616 
Q 2728 306 2450 153 
Q 2172 0 1784 0 
Q 1141 0 747 490 
Q 353 981 353 1791 
Q 353 2603 747 3093 
Q 1141 3584 1784 3584 
Q 2172 3584 2450 3431 
Q 2728 3278 2906 2969 
L 2906 3500 
L 3481 3500 
L 3481 434 
z
" transform="scale(0.015625)"/>
       <path id="DejaVuSans-68" d="M 3513 2113 
L 3513 0 
L 2938 0 
L 2938 2094 
Q 2938 2591 2744 2837 
Q 2550 3084 2163 3084 
Q 1697 3084 1428 2787 
Q 1159 2491 1159 1978 
L 1159 0 
L 581 0 
L 581 4863 
L 1159 4863 
L 1159 2956 
Q 1366 3272 1645 3428 
Q 1925 3584 2291 3584 
Q 2894 3584 3203 3211 
Q 3513 2838 3513 2113 
z
" transform="scale(0.015625)"/>
       <path id="DejaVuSans-6e" d="M 3513 2113 
L 3513 0 
L 2938 0 
L 2938 2094 
Q 2938 2591 2744 2837 
Q 2550 3084 2163 3084 
Q 1697 3084 1428 2787 
Q 1159 2491 1159 1978 
L 1159 0 
L 581 0 
L 581 3500 
L 1159 3500 
L 1159 2956 
Q 1366 3272 1645 3428 
Q 1925 3584 2291 3584 
Q 2894 3584 3203 3211 
Q 3513 2838 3513 2113 
z
" transform="scale(0.015625)"/>
       <path id="DejaVuSans-73" d="M 2834 3397 
L 2834 2853 
Q 2591 2978 2328 3040 
Q 2066 3103 1784 3103 
Q 1356 3103 1142 2972 
Q 928 2841 928 2578 
Q 928 2378 1081 2264 
Q 1234 2150 1697 2047 
L 1894 2003 
Q 2506 1872 2764 1633 
Q 3022 1394 3022 966 
Q 3022 478 2636 193 
Q 2250 -91 1575 -91 
Q 1294 -91 989 -36 
Q 684 19 347 128 
L 347 722 
Q 666 556 975 473 
Q 1284 391 1588 391 
Q 1994 391 2212 530 
Q 2431 669 2431 922 
Q 2431 1156 2273 1281 
Q 2116 1406 1581 1522 
L 1381 1569 
Q 847 1681 609 1914 
Q 372 2147 372 2553 
Q 372 3047 722 3315 
Q 1072 3584 1716 3584 
Q 2034 3584 2315 3537 
Q 2597 3491 2834 3397 
z
" transform="scale(0.015625)"/>
       <path id="DejaVuSans-28" d="M 1984 4856 
Q 1566 4138 1362 3434 
Q 1159 2731 1159 2009 
Q 1159 1288 1364 580 
Q 1569 -128 1984 -844 
L 1484 -844 
Q 1016 -109 783 600 
Q 550 1309 550 2009 
Q 550 2706 781 3412 
Q 1013 4119 1484 4856 
L 1984 4856 
z
" transform="scale(0.015625)"/>
       <path id="DejaVuSans-25" d="M 4653 2053 
Q 4381 2053 4226 1822 
Q 4072 1591 4072 1178 
Q 4072 772 4226 539 
Q 4381 306 4653 306 
Q 4919 306 5073 539 
Q 5228 772 5228 1178 
Q 5228 1588 5073 1820 
Q 4919 2053 4653 2053 
z
M 4653 2450 
Q 5147 2450 5437 2106 
Q 5728 1763 5728 1178 
Q 5728 594 5436 251 
Q 5144 -91 4653 -91 
Q 4153 -91 3862 251 
Q 3572 594 3572 1178 
Q 3572 1766 3864 2108 
Q 4156 2450 4653 2450 
z
M 1428 4353 
Q 1159 4353 1004 4120 
Q 850 3888 850 3481 
Q 850 3069 1003 2837 
Q 1156 2606 1428 2606 
Q 1700 2606 1854 2837 
Q 2009 3069 2009 3481 
Q 2009 3884 1853 4118 
Q 1697 4353 1428 4353 
z
M 4250 4750 
L 4750 4750 
L 1831 -91 
L 1331 -91 
L 4250 4750 
z
M 1428 4750 
Q 1922 4750 2215 4408 
Q 2509 4066 2509 3481 
Q 2509 2891 2217 2550 
Q 1925 2209 1428 2209 
Q 931 2209 642 2551 
Q 353 2894 353 3481 
Q 353 4063 643 4406 
Q 934 4750 1428 4750 
z
" transform="scale(0.015625)"/>
       <path id="DejaVuSans-29" d="M 513 4856 
L 1013 4856 
Q 1481 4119 1714 3412 
Q 1947 2706 1947 2009 
Q 1947 1309 1714 600 
Q 1481 -109 1013 -844 
L 513 -844 
Q 928 -128 1133 580 
Q 1338 1288 1338 2009 
Q 1338 2731 1133 3434 
Q 928 4138 513 4856 
z
" transform="scale(0.015625)"/>
      </defs>
      <use xlink:href="#DejaVuSans-50"/>
      <use xlink:href="#DejaVuSans-65" transform="translate(56.677734 0)"/>
      <use xlink:href="#DejaVuSans-72" transform="translate(118.201172 0)"/>
      <use xlink:href="#DejaVuSans-63" transform="translate(157.064453 0)"/>
      <use xlink:href="#DejaVuSans-65" transform="translate(212.044922 0)"/>
      <use xlink:href="#DejaVuSans-70" transform="translate(273.568359 0)"/>
      <use xlink:href="#DejaVuSans-74" transform="translate(337.044922 0)"/>
      <use xlink:href="#DejaVuSans-75" transform="translate(376.253906 0)"/>
      <use xlink:href="#DejaVuSans-61" transform="translate(439.632812 0)"/>
      <use xlink:href="#DejaVuSans-6c" transform="translate(500.912109 0)"/>
      <use xlink:href="#DejaVuSans-20" transform="translate(528.695312 0)"/>
      <use xlink:href="#DejaVuSans-42" transform="translate(560.482422 0)"/>
      <use xlink:href="#DejaVuSans-72" transform="translate(629.085938 0)"/>
      <use xlink:href="#DejaVuSans-69" transform="translate(670.199219 0)"/>
      <use xlink:href="#DejaVuSans-67" transform="translate(697.982422 0)"/>
      <use xlink:href="#DejaVuSans-68" transform="translate(761.458984 0)"/>
      <use xlink:href="#DejaVuSans-74" transform="translate(824.837891 0)"/>
      <use xlink:href="#DejaVuSans-6e" transform="translate(864.046875 0)"/>
      <use xlink:href="#DejaVuSans-65" transform="translate(927.425781 0)"/>
      <use xlink:href="#DejaVuSans-73" transform="translate(988.949219 0)"/>
      <use xlink:href="#DejaVuSans-73" transform="translate(1041.048828 0)"/>
      <use xlink:href="#DejaVuSans-20" transform="translate(1093.148438 0)"/>
      <use xlink:href="#DejaVuSans-28" transform="translate(1124.935547 0)"/>
      <use xlink:href="#DejaVuSans-25" transform="translate(1163.949219 0)"/>
      <use xlink:href="#DejaVuSans-29" transform="translate(1258.96875 0)"/>
     </g>
    </g>
   </g>
   <g id="matplotlib.axis_2">
    <g id="ytick_1">
     <g id="line2d_13">
      <path d="M 54.47 507.616364 
L 853.2 507.616364 
" clip-path="url(#p70a9bb3922)" style="fill: none; stroke-dasharray: 2.96,1.28; stroke-dashoffset: 0; stroke: #b0b0b0; stroke-opacity: 0.6; stroke-width: 0.8"/>
     </g>
     <g id="line2d_14">
      <defs>
       <path id="m2b4e370628" d="M 0 0 
L -3.5 0 
" style="stroke: #000000; stroke-width: 0.8"/>
      </defs>
      <g>
       <use xlink:href="#m2b4e370628" x="54.47" y="507.616364" style="stroke: #000000; stroke-width: 0.8"/>
      </g>
     </g>
     <g id="text_8">
      <!-- 0 -->
      <g transform="translate(41.1075 511.415582) scale(0.1 -0.1)">
       <use xlink:href="#DejaVuSans-30"/>
      </g>
     </g>
    </g>
    <g id="ytick_2">
     <g id="line2d_15">
      <path d="M 54.47 416.321818 
L 853.2 416.321818 
" clip-path="url(#p70a9bb3922)" style="fill: none; stroke-dasharray: 2.96,1.28; stroke-dashoffset: 0; stroke: #b0b0b0; stroke-opacity: 0.6; stroke-width: 0.8"/>
     </g>
     <g id="line2d_16">
      <g>
       <use xlink:href="#m2b4e370628" x="54.47" y="416.321818" style="stroke: #000000; stroke-width: 0.8"/>
      </g>
     </g>
     <g id="text_9">
      <!-- 20 -->
      <g transform="translate(34.745 420.121037) scale(0.1 -0.1)">
       <use xlink:href="#DejaVuSans-32"/>
       <use xlink:href="#DejaVuSans-30" transform="translate(63.623047 0)"/>
      </g>
     </g>
    </g>
    <g id="ytick_3">
     <g id="line2d_17">
      <path d="M 54.47 325.027273 
L 853.2 325.027273 
" clip-path="url(#p70a9bb3922)" style="fill: none; stroke-dasharray: 2.96,1.28; stroke-dashoffset: 0; stroke: #b0b0b0; stroke-opacity: 0.6; stroke-width: 0.8"/>
     </g>
     <g id="line2d_18">
      <g>
       <use xlink:href="#m2b4e370628" x="54.47" y="325.027273" style="stroke: #000000; stroke-width: 0.8"/>
      </g>
     </g>
     <g id="text_10">
      <!-- 40 -->
      <g transform="translate(34.745 328.826491) scale(0.1 -0.1)">
       <use xlink:href="#DejaVuSans-34"/>
       <use xlink:href="#DejaVuSans-30" transform="translate(63.623047 0)"/>
      </g>
     </g>
    </g>
    <g id="ytick_4">
     <g id="line2d_19">
      <path d="M 54.47 233.732727 
L 853.2 233.732727 
" clip-path="url(#p70a9bb3922)" style="fill: none; stroke-dasharray: 2.96,1.28; stroke-dashoffset: 0; stroke: #b0b0b0; stroke-opacity: 0.6; stroke-width: 0.8"/>
     </g>
     <g id="line2d_20">
      <g>
       <use xlink:href="#m2b4e370628" x="54.47" y="233.732727" style="stroke: #000000; stroke-width: 0.8"/>
      </g>
     </g>
     <g id="text_11">
      <!-- 60 -->
      <g transform="translate(34.745 237.531946) scale(0.1 -0.1)">
       <use xlink:href="#DejaVuSans-36"/>
       <use xlink:href="#DejaVuSans-30" transform="translate(63.623047 0)"/>
      </g>
     </g>
    </g>
    <g id="ytick_5">
     <g id="line2d_21">
      <path d="M 54.47 142.438182 
L 853.2 142.438182 
" clip-path="url(#p70a9bb3922)" style="fill: none; stroke-dasharray: 2.96,1.28; stroke-dashoffset: 0; stroke: #b0b0b0; stroke-opacity: 0.6; stroke-width: 0.8"/>
     </g>
     <g id="line2d_22">
      <g>
       <use xlink:href="#m2b4e370628" x="54.47" y="142.438182" style="stroke: #000000; stroke-width: 0.8"/>
      </g>
     </g>
     <g id="text_12">
      <!-- 80 -->
      <g transform="translate(34.745 146.237401) scale(0.1 -0.1)">
       <use xlink:href="#DejaVuSans-38"/>
       <use xlink:href="#DejaVuSans-30" transform="translate(63.623047 0)"/>
      </g>
     </g>
    </g>
    <g id="ytick_6">
     <g id="line2d_23">
      <path d="M 54.47 51.143636 
L 853.2 51.143636 
" clip-path="url(#p70a9bb3922)" style="fill: none; stroke-dasharray: 2.96,1.28; stroke-dashoffset: 0; stroke: #b0b0b0; stroke-opacity: 0.6; stroke-width: 0.8"/>
     </g>
     <g id="line2d_24">
      <g>
       <use xlink:href="#m2b4e370628" x="54.47" y="51.143636" style="stroke: #000000; stroke-width: 0.8"/>
      </g>
     </g>
     <g id="text_13">
      <!-- 100 -->
      <g transform="translate(28.3825 54.942855) scale(0.1 -0.1)">
       <use xlink:href="#DejaVuSans-31"/>
       <use xlink:href="#DejaVuSans-30" transform="translate(63.623047 0)"/>
       <use xlink:href="#DejaVuSans-30" transform="translate(127.246094 0)"/>
      </g>
     </g>
    </g>
    <g id="text_14">
     <!-- Output Power (%) -->
     <g transform="translate(21.470937 341.4175) rotate(-90) scale(0.14 -0.14)">
      <defs>
       <path id="DejaVuSans-4f" d="M 2522 4238 
Q 1834 4238 1429 3725 
Q 1025 3213 1025 2328 
Q 1025 1447 1429 934 
Q 1834 422 2522 422 
Q 3209 422 3611 934 
Q 4013 1447 4013 2328 
Q 4013 3213 3611 3725 
Q 3209 4238 2522 4238 
z
M 2522 4750 
Q 3503 4750 4090 4092 
Q 4678 3434 4678 2328 
Q 4678 1225 4090 567 
Q 3503 -91 2522 -91 
Q 1538 -91 948 565 
Q 359 1222 359 2328 
Q 359 3434 948 4092 
Q 1538 4750 2522 4750 
z
" transform="scale(0.015625)"/>
       <path id="DejaVuSans-6f" d="M 1959 3097 
Q 1497 3097 1228 2736 
Q 959 2375 959 1747 
Q 959 1119 1226 758 
Q 1494 397 1959 397 
Q 2419 397 2687 759 
Q 2956 1122 2956 1747 
Q 2956 2369 2687 2733 
Q 2419 3097 1959 3097 
z
M 1959 3584 
Q 2709 3584 3137 3096 
Q 3566 2609 3566 1747 
Q 3566 888 3137 398 
Q 2709 -91 1959 -91 
Q 1206 -91 779 398 
Q 353 888 353 1747 
Q 353 2609 779 3096 
Q 1206 3584 1959 3584 
z
" transform="scale(0.015625)"/>
       <path id="DejaVuSans-77" d="M 269 3500 
L 844 3500 
L 1563 769 
L 2278 3500 
L 2956 3500 
L 3675 769 
L 4391 3500 
L 4966 3500 
L 4050 0 
L 3372 0 
L 2619 2869 
L 1863 0 
L 1184 0 
L 269 3500 
z
" transform="scale(0.015625)"/>
      </defs>
      <use xlink:href="#DejaVuSans-4f"/>
      <use xlink:href="#DejaVuSans-75" transform="translate(78.710938 0)"/>
      <use xlink:href="#DejaVuSans-74" transform="translate(142.089844 0)"/>
      <use xlink:href="#DejaVuSans-70" transform="translate(181.298828 0)"/>
      <use xlink:href="#DejaVuSans-75" transform="translate(244.775391 0)"/>
      <use xlink:href="#DejaVuSans-74" transform="translate(308.154297 0)"/>
      <use xlink:href="#DejaVuSans-20" transform="translate(347.363281 0)"/>
      <use xlink:href="#DejaVuSans-50" transform="translate(379.150391 0)"/>
      <use xlink:href="#DejaVuSans-6f" transform="translate(435.828125 0)"/>
      <use xlink:href="#DejaVuSans-77" transform="translate(497.009766 0)"/>
      <use xlink:href="#DejaVuSans-65" transform="translate(578.796875 0)"/>
      <use xlink:href="#DejaVuSans-72" transform="translate(640.320312 0)"/>
      <use xlink:href="#DejaVuSans-20" transform="translate(681.433594 0)"/>
      <use xlink:href="#DejaVuSans-28" transform="translate(713.220703 0)"/>
      <use xlink:href="#DejaVuSans-25" transform="translate(752.234375 0)"/>
      <use xlink:href="#DejaVuSans-29" transform="translate(847.253906 0)"/>
     </g>
    </g>
   </g>
   <g id="line2d_25">
    <path d="M 90.775909 507.616364 
L 96.470954 507.170481 
L 99.318476 507.05901 
L 107.861043 506.390185 
L 110.708565 506.278715 
L 122.098654 505.386949 
L 124.946176 505.275478 
L 133.488743 504.606653 
L 136.336266 504.495183 
L 147.726355 503.603417 
L 150.573877 503.491946 
L 167.659011 502.154297 
L 173.354055 501.596943 
L 176.201578 501.374002 
L 184.744144 500.482236 
L 187.591667 500.259294 
L 221.761934 496.134876 
L 253.084679 491.118692 
L 287.254947 484.318977 
L 307.187602 479.525734 
L 338.510348 470.831016 
L 355.595481 465.368949 
L 384.070704 455.22511 
L 398.308316 449.540102 
L 421.088494 439.619205 
L 441.02115 430.144191 
L 455.258761 422.787122 
L 478.038939 410.190927 
L 489.429029 403.391211 
L 509.361684 390.795016 
L 523.599296 381.208531 
L 540.68443 369.05822 
L 554.922041 358.357027 
L 569.159652 347.098482 
L 583.397264 335.282582 
L 597.634875 322.909328 
L 609.024964 312.542549 
L 626.110098 296.37929 
L 637.500187 285.120744 
L 648.890276 273.416315 
L 663.127888 258.256293 
L 677.365499 242.538917 
L 685.908066 232.729491 
L 700.145677 215.897407 
L 708.688244 205.419156 
L 722.925856 187.472365 
L 734.315945 172.646755 
L 745.706034 157.375263 
L 757.096123 141.657887 
L 765.63869 129.507575 
L 779.876301 108.774015 
L 788.418868 95.843408 
L 791.26639 91.607519 
L 811.199046 60.395709 
L 816.894091 51.143636 
L 816.894091 51.143636 
" clip-path="url(#p70a9bb3922)" style="fill: none; stroke: #1f77b4; stroke-width: 2; stroke-linecap: square"/>
   </g>
   <g id="line2d_26">
    <path d="M 90.775909 507.616364 
L 96.470954 507.616364 
L 99.318476 507.504893 
L 102.165998 507.504893 
L 107.861043 507.281951 
L 110.708565 507.05901 
L 113.556087 506.947539 
L 122.098654 506.278715 
L 139.183788 504.16077 
L 150.573877 502.265768 
L 164.811488 499.367528 
L 176.201578 496.580759 
L 193.286711 491.787517 
L 204.6768 488.108982 
L 224.609456 480.974854 
L 235.999545 476.404553 
L 261.627246 465.257478 
L 275.864857 458.457762 
L 301.492558 445.304214 
L 324.272736 432.708019 
L 349.900437 417.547996 
L 384.070704 396.034141 
L 418.240971 373.182637 
L 460.953806 342.974064 
L 512.209207 304.739596 
L 529.29434 291.474577 
L 534.989385 287.127217 
L 563.464608 264.721596 
L 569.159652 260.151295 
L 577.702219 253.35158 
L 589.092308 244.099507 
L 594.787353 239.529206 
L 660.280365 185.577363 
L 668.822932 178.331764 
L 677.365499 171.197636 
L 685.908066 163.952037 
L 691.603111 159.158795 
L 705.840722 147.008483 
L 711.535766 142.21524 
L 802.65648 63.628361 
L 808.351524 58.612177 
L 816.894091 51.143636 
L 816.894091 51.143636 
" clip-path="url(#p70a9bb3922)" style="fill: none; stroke: #ff7f0e; stroke-width: 2; stroke-linecap: square"/>
   </g>
   <g id="line2d_27">
    <path d="M 90.775909 507.616364 
L 93.623431 507.504893 
L 124.946176 507.504893 
L 127.793699 507.393422 
L 170.506533 507.393422 
L 173.354055 507.281951 
L 198.981756 507.281951 
L 201.829278 507.170481 
L 221.761934 507.170481 
L 224.609456 507.05901 
L 238.847068 507.05901 
L 241.69459 506.947539 
L 253.084679 506.947539 
L 255.932201 506.836068 
L 264.474768 506.836068 
L 267.322291 506.724598 
L 275.864857 506.724598 
L 278.71238 506.613127 
L 287.254947 506.613127 
L 290.102469 506.501656 
L 295.797513 506.501656 
L 298.645036 506.390185 
L 301.492558 506.390185 
L 304.34008 506.278715 
L 310.035125 506.278715 
L 312.882647 506.167244 
L 315.730169 506.167244 
L 318.577692 506.055773 
L 321.425214 506.055773 
L 324.272736 505.944302 
L 329.967781 505.944302 
L 335.662825 505.721361 
L 338.510348 505.721361 
L 341.35787 505.60989 
L 344.205392 505.60989 
L 347.052914 505.498419 
L 349.900437 505.498419 
L 355.595481 505.275478 
L 358.443004 505.275478 
L 366.98557 504.941066 
L 369.833093 504.941066 
L 406.850882 503.491946 
L 409.698405 503.269004 
L 415.393449 503.046063 
L 418.240971 502.823121 
L 423.936016 502.60018 
L 426.783538 502.377238 
L 429.631061 502.265768 
L 435.326105 501.819885 
L 438.173627 501.708414 
L 460.953806 499.924882 
L 469.496373 499.033116 
L 472.343895 498.810174 
L 503.66664 495.020169 
L 523.599296 491.787517 
L 540.68443 488.331924 
L 557.769563 484.207506 
L 566.31213 481.755149 
L 580.549742 477.184848 
L 589.092308 474.063667 
L 597.634875 470.608074 
L 606.177442 466.818069 
L 620.415053 459.57247 
L 631.805143 452.884225 
L 643.195232 445.192743 
L 651.737799 438.727439 
L 657.432843 434.157138 
L 663.127888 429.140955 
L 668.822932 423.901829 
L 674.517977 418.216821 
L 677.365499 415.318581 
L 685.908066 405.843568 
L 694.450633 395.365317 
L 700.145677 387.785306 
L 705.840722 379.647941 
L 711.535766 371.064693 
L 717.230811 361.812621 
L 720.078333 357.019378 
L 725.773378 346.87554 
L 731.468422 336.062877 
L 737.163467 324.469919 
L 740.010989 318.450498 
L 745.706034 305.631362 
L 751.401078 292.03193 
L 757.096123 277.540733 
L 762.791168 262.046298 
L 768.486212 245.437156 
L 774.181257 227.713307 
L 779.876301 208.87475 
L 785.571346 188.810014 
L 791.26639 167.296159 
L 796.961435 144.333185 
L 802.65648 119.809619 
L 808.351524 93.725463 
L 811.199046 80.014561 
L 816.894091 51.143636 
L 816.894091 51.143636 
" clip-path="url(#p70a9bb3922)" style="fill: none; stroke: #2ca02c; stroke-width: 2; stroke-linecap: square"/>
   </g>
   <g id="line2d_28">
    <path d="M 90.775909 507.616364 
L 102.165998 507.616364 
L 105.01352 507.504893 
L 107.861043 507.504893 
L 110.708565 507.393422 
L 113.556087 507.393422 
L 116.40361 507.281951 
L 119.251132 507.281951 
L 136.336266 506.613127 
L 139.183788 506.390185 
L 142.03131 506.278715 
L 144.878832 506.055773 
L 147.726355 505.944302 
L 167.659011 504.383712 
L 201.829278 500.259294 
L 224.609456 496.580759 
L 247.389635 492.010458 
L 270.169813 486.548392 
L 292.949991 480.194559 
L 315.730169 472.94896 
L 338.510348 464.811595 
L 355.595481 458.011879 
L 381.223182 446.864804 
L 395.460793 440.065088 
L 421.088494 426.91154 
L 441.02115 415.875935 
L 458.106283 405.732097 
L 478.038939 393.135902 
L 497.971595 379.759412 
L 517.904251 365.602626 
L 534.989385 352.78349 
L 554.922041 337.066114 
L 574.854697 320.568443 
L 591.939831 305.742833 
L 609.024964 290.248398 
L 631.805143 268.734543 
L 643.195232 257.475997 
L 668.822932 231.280371 
L 680.213021 219.130059 
L 702.9932 194.04914 
L 717.230811 177.77441 
L 737.163467 154.254081 
L 751.401078 136.864644 
L 771.333734 111.783725 
L 788.418868 89.601046 
L 805.504002 66.749542 
L 816.894091 51.143636 
L 816.894091 51.143636 
" clip-path="url(#p70a9bb3922)" style="fill: none; stroke: #d62728; stroke-width: 2; stroke-linecap: square"/>
   </g>
   <g id="patch_3">
    <path d="M 54.47 530.44 
L 54.47 28.32 
" style="fill: none; stroke: #000000; stroke-width: 0.8; stroke-linejoin: miter; stroke-linecap: square"/>
   </g>
   <g id="patch_4">
    <path d="M 853.2 530.44 
L 853.2 28.32 
" style="fill: none; stroke: #000000; stroke-width: 0.8; stroke-linejoin: miter; stroke-linecap: square"/>
   </g>
   <g id="patch_5">
    <path d="M 54.47 530.44 
L 853.2 530.44 
" style="fill: none; stroke: #000000; stroke-width: 0.8; stroke-linejoin: miter; stroke-linecap: square"/>
   </g>
   <g id="patch_6">
    <path d="M 54.47 28.32 
L 853.2 28.32 
" style="fill: none; stroke: #000000; stroke-width: 0.8; stroke-linejoin: miter; stroke-linecap: square"/>
   </g>
   <g id="text_15">
    <!-- Borneo-IoT Project LED Brightness Curve Comparison -->
    <g transform="translate(240.37125 22.32) scale(0.16 -0.16)">
     <defs>
      <path id="DejaVuSans-2d" d="M 313 2009 
L 1997 2009 
L 1997 1497 
L 313 1497 
L 313 2009 
z
" transform="scale(0.015625)"/>
      <path id="DejaVuSans-49" d="M 628 4666 
L 1259 4666 
L 1259 0 
L 628 0 
L 628 4666 
z
" transform="scale(0.015625)"/>
      <path id="DejaVuSans-54" d="M -19 4666 
L 3928 4666 
L 3928 4134 
L 2272 4134 
L 2272 0 
L 1638 0 
L 1638 4134 
L -19 4134 
L -19 4666 
z
" transform="scale(0.015625)"/>
      <path id="DejaVuSans-6a" d="M 603 3500 
L 1178 3500 
L 1178 -63 
Q 1178 -731 923 -1031 
Q 669 -1331 103 -1331 
L -116 -1331 
L -116 -844 
L 38 -844 
Q 366 -844 484 -692 
Q 603 -541 603 -63 
L 603 3500 
z
M 603 4863 
L 1178 4863 
L 1178 4134 
L 603 4134 
L 603 4863 
z
" transform="scale(0.015625)"/>
      <path id="DejaVuSans-4c" d="M 628 4666 
L 1259 4666 
L 1259 531 
L 3531 531 
L 3531 0 
L 628 0 
L 628 4666 
z
" transform="scale(0.015625)"/>
      <path id="DejaVuSans-45" d="M 628 4666 
L 3578 4666 
L 3578 4134 
L 1259 4134 
L 1259 2753 
L 3481 2753 
L 3481 2222 
L 1259 2222 
L 1259 531 
L 3634 531 
L 3634 0 
L 628 0 
L 628 4666 
z
" transform="scale(0.015625)"/>
      <path id="DejaVuSans-44" d="M 1259 4147 
L 1259 519 
L 2022 519 
Q 2988 519 3436 956 
Q 3884 1394 3884 2338 
Q 3884 3275 3436 3711 
Q 2988 4147 2022 4147 
L 1259 4147 
z
M 628 4666 
L 1925 4666 
Q 3281 4666 3915 4102 
Q 4550 3538 4550 2338 
Q 4550 1131 3912 565 
Q 3275 0 1925 0 
L 628 0 
L 628 4666 
z
" transform="scale(0.015625)"/>
      <path id="DejaVuSans-43" d="M 4122 4306 
L 4122 3641 
Q 3803 3938 3442 4084 
Q 3081 4231 2675 4231 
Q 1875 4231 1450 3742 
Q 1025 3253 1025 2328 
Q 1025 1406 1450 917 
Q 1875 428 2675 428 
Q 3081 428 3442 575 
Q 3803 722 4122 1019 
L 4122 359 
Q 3791 134 3420 21 
Q 3050 -91 2638 -91 
Q 1578 -91 968 557 
Q 359 1206 359 2328 
Q 359 3453 968 4101 
Q 1578 4750 2638 4750 
Q 3056 4750 3426 4639 
Q 3797 4528 4122 4306 
z
" transform="scale(0.015625)"/>
      <path id="DejaVuSans-76" d="M 191 3500 
L 800 3500 
L 1894 563 
L 2988 3500 
L 3597 3500 
L 2284 0 
L 1503 0 
L 191 3500 
z
" transform="scale(0.015625)"/>
      <path id="DejaVuSans-6d" d="M 3328 2828 
Q 3544 3216 3844 3400 
Q 4144 3584 4550 3584 
Q 5097 3584 5394 3201 
Q 5691 2819 5691 2113 
L 5691 0 
L 5113 0 
L 5113 2094 
Q 5113 2597 4934 2840 
Q 4756 3084 4391 3084 
Q 3944 3084 3684 2787 
Q 3425 2491 3425 1978 
L 3425 0 
L 2847 0 
L 2847 2094 
Q 2847 2600 2669 2842 
Q 2491 3084 2119 3084 
Q 1678 3084 1418 2786 
Q 1159 2488 1159 1978 
L 1159 0 
L 581 0 
L 581 3500 
L 1159 3500 
L 1159 2956 
Q 1356 3278 1631 3431 
Q 1906 3584 2284 3584 
Q 2666 3584 2933 3390 
Q 3200 3197 3328 2828 
z
" transform="scale(0.015625)"/>
     </defs>
     <use xlink:href="#DejaVuSans-42"/>
     <use xlink:href="#DejaVuSans-6f" transform="translate(68.603516 0)"/>
     <use xlink:href="#DejaVuSans-72" transform="translate(129.785156 0)"/>
     <use xlink:href="#DejaVuSans-6e" transform="translate(169.148438 0)"/>
     <use xlink:href="#DejaVuSans-65" transform="translate(232.527344 0)"/>
     <use xlink:href="#DejaVuSans-6f" transform="translate(294.050781 0)"/>
     <use xlink:href="#DejaVuSans-2d" transform="translate(357.107422 0)"/>
     <use xlink:href="#DejaVuSans-49" transform="translate(393.191406 0)"/>
     <use xlink:href="#DejaVuSans-6f" transform="translate(422.683594 0)"/>
     <use xlink:href="#DejaVuSans-54" transform="translate(483.865234 0)"/>
     <use xlink:href="#DejaVuSans-20" transform="translate(544.949219 0)"/>
     <use xlink:href="#DejaVuSans-50" transform="translate(576.736328 0)"/>
     <use xlink:href="#DejaVuSans-72" transform="translate(635.289062 0)"/>
     <use xlink:href="#DejaVuSans-6f" transform="translate(674.152344 0)"/>
     <use xlink:href="#DejaVuSans-6a" transform="translate(735.333984 0)"/>
     <use xlink:href="#DejaVuSans-65" transform="translate(763.117188 0)"/>
     <use xlink:href="#DejaVuSans-63" transform="translate(824.640625 0)"/>
     <use xlink:href="#DejaVuSans-74" transform="translate(879.621094 0)"/>
     <use xlink:href="#DejaVuSans-20" transform="translate(918.830078 0)"/>
     <use xlink:href="#DejaVuSans-4c" transform="translate(950.617188 0)"/>
     <use xlink:href="#DejaVuSans-45" transform="translate(1006.330078 0)"/>
     <use xlink:href="#DejaVuSans-44" transform="translate(1069.513672 0)"/>
     <use xlink:href="#DejaVuSans-20" transform="translate(1146.515625 0)"/>
     <use xlink:href="#DejaVuSans-42" transform="translate(1178.302734 0)"/>
     <use xlink:href="#DejaVuSans-72" transform="translate(1246.90625 0)"/>
     <use xlink:href="#DejaVuSans-69" transform="translate(1288.019531 0)"/>
     <use xlink:href="#DejaVuSans-67" transform="translate(1315.802734 0)"/>
     <use xlink:href="#DejaVuSans-68" transform="translate(1379.279297 0)"/>
     <use xlink:href="#DejaVuSans-74" transform="translate(1442.658203 0)"/>
     <use xlink:href="#DejaVuSans-6e" transform="translate(1481.867188 0)"/>
     <use xlink:href="#DejaVuSans-65" transform="translate(1545.246094 0)"/>
     <use xlink:href="#DejaVuSans-73" transform="translate(1606.769531 0)"/>
     <use xlink:href="#DejaVuSans-73" transform="translate(1658.869141 0)"/>
     <use xlink:href="#DejaVuSans-20" transform="translate(1710.96875 0)"/>
     <use xlink:href="#DejaVuSans-43" transform="translate(1742.755859 0)"/>
     <use xlink:href="#DejaVuSans-75" transform="translate(1812.580078 0)"/>
     <use xlink:href="#DejaVuSans-72" transform="translate(1875.958984 0)"/>
     <use xlink:href="#DejaVuSans-76" transform="translate(1917.072266 0)"/>
     <use xlink:href="#DejaVuSans-65" transform="translate(1976.251953 0)"/>
     <use xlink:href="#DejaVuSans-20" transform="translate(2037.775391 0)"/>
     <use xlink:href="#DejaVuSans-43" transform="translate(2069.5625 0)"/>
     <use xlink:href="#DejaVuSans-6f" transform="translate(2139.386719 0)"/>
     <use xlink:href="#DejaVuSans-6d" transform="translate(2200.568359 0)"/>
     <use xlink:href="#DejaVuSans-70" transform="translate(2297.980469 0)"/>
     <use xlink:href="#DejaVuSans-61" transform="translate(2361.457031 0)"/>
     <use xlink:href="#DejaVuSans-72" transform="translate(2422.736328 0)"/>
     <use xlink:href="#DejaVuSans-69" transform="translate(2463.849609 0)"/>
     <use xlink:href="#DejaVuSans-73" transform="translate(2491.632812 0)"/>
     <use xlink:href="#DejaVuSans-6f" transform="translate(2543.732422 0)"/>
     <use xlink:href="#DejaVuSans-6e" transform="translate(2604.914062 0)"/>
    </g>
   </g>
   <g id="legend_1">
    <g id="patch_7">
     <path d="M 62.87 108.375 
L 225.490625 108.375 
Q 227.890625 108.375 227.890625 105.975 
L 227.890625 36.72 
Q 227.890625 34.32 225.490625 34.32 
L 62.87 34.32 
Q 60.47 34.32 60.47 36.72 
L 60.47 105.975 
Q 60.47 108.375 62.87 108.375 
z
" style="fill: #ffffff; opacity: 0.8; stroke: #cccccc; stroke-linejoin: miter"/>
    </g>
    <g id="line2d_29">
     <path d="M 65.27 44.038125 
L 77.27 44.038125 
L 89.27 44.038125 
" style="fill: none; stroke: #1f77b4; stroke-width: 2; stroke-linecap: square"/>
    </g>
    <g id="text_16">
     <!-- CIE 1931 -->
     <g transform="translate(98.87 48.238125) scale(0.12 -0.12)">
      <defs>
       <path id="DejaVuSans-39" d="M 703 97 
L 703 672 
Q 941 559 1184 500 
Q 1428 441 1663 441 
Q 2288 441 2617 861 
Q 2947 1281 2994 2138 
Q 2813 1869 2534 1725 
Q 2256 1581 1919 1581 
Q 1219 1581 811 2004 
Q 403 2428 403 3163 
Q 403 3881 828 4315 
Q 1253 4750 1959 4750 
Q 2769 4750 3195 4129 
Q 3622 3509 3622 2328 
Q 3622 1225 3098 567 
Q 2575 -91 1691 -91 
Q 1453 -91 1209 -44 
Q 966 3 703 97 
z
M 1959 2075 
Q 2384 2075 2632 2365 
Q 2881 2656 2881 3163 
Q 2881 3666 2632 3958 
Q 2384 4250 1959 4250 
Q 1534 4250 1286 3958 
Q 1038 3666 1038 3163 
Q 1038 2656 1286 2365 
Q 1534 2075 1959 2075 
z
" transform="scale(0.015625)"/>
       <path id="DejaVuSans-33" d="M 2597 2516 
Q 3050 2419 3304 2112 
Q 3559 1806 3559 1356 
Q 3559 666 3084 287 
Q 2609 -91 1734 -91 
Q 1441 -91 1130 -33 
Q 819 25 488 141 
L 488 750 
Q 750 597 1062 519 
Q 1375 441 1716 441 
Q 2309 441 2620 675 
Q 2931 909 2931 1356 
Q 2931 1769 2642 2001 
Q 2353 2234 1838 2234 
L 1294 2234 
L 1294 2753 
L 1863 2753 
Q 2328 2753 2575 2939 
Q 2822 3125 2822 3475 
Q 2822 3834 2567 4026 
Q 2313 4219 1838 4219 
Q 1578 4219 1281 4162 
Q 984 4106 628 3988 
L 628 4550 
Q 988 4650 1302 4700 
Q 1616 4750 1894 4750 
Q 2613 4750 3031 4423 
Q 3450 4097 3450 3541 
Q 3450 3153 3228 2886 
Q 3006 2619 2597 2516 
z
" transform="scale(0.015625)"/>
      </defs>
      <use xlink:href="#DejaVuSans-43"/>
      <use xlink:href="#DejaVuSans-49" transform="translate(69.824219 0)"/>
      <use xlink:href="#DejaVuSans-45" transform="translate(99.316406 0)"/>
      <use xlink:href="#DejaVuSans-20" transform="translate(162.5 0)"/>
      <use xlink:href="#DejaVuSans-31" transform="translate(194.287109 0)"/>
      <use xlink:href="#DejaVuSans-39" transform="translate(257.910156 0)"/>
      <use xlink:href="#DejaVuSans-33" transform="translate(321.533203 0)"/>
      <use xlink:href="#DejaVuSans-31" transform="translate(385.15625 0)"/>
     </g>
    </g>
    <g id="line2d_30">
     <path d="M 65.27 61.651875 
L 77.27 61.651875 
L 89.27 61.651875 
" style="fill: none; stroke: #ff7f0e; stroke-width: 2; stroke-linecap: square"/>
    </g>
    <g id="text_17">
     <!-- Logarithmic (γ= 2.2) -->
     <g transform="translate(98.87 65.851875) scale(0.12 -0.12)">
      <defs>
       <path id="DejaVuSans-3b3" d="M 1128 2950 
L 1894 788 
L 2988 3500 
L 3597 3500 
L 2181 0 
L 2181 -1331 
L 1606 -1331 
L 1606 0 
L 688 2613 
Q 550 3006 253 3006 
L 100 3006 
L 100 3500 
L 319 3500 
Q 934 3500 1128 2950 
z
" transform="scale(0.015625)"/>
       <path id="DejaVuSans-3d" d="M 678 2906 
L 4684 2906 
L 4684 2381 
L 678 2381 
L 678 2906 
z
M 678 1631 
L 4684 1631 
L 4684 1100 
L 678 1100 
L 678 1631 
z
" transform="scale(0.015625)"/>
       <path id="DejaVuSans-2e" d="M 684 794 
L 1344 794 
L 1344 0 
L 684 0 
L 684 794 
z
" transform="scale(0.015625)"/>
      </defs>
      <use xlink:href="#DejaVuSans-4c"/>
      <use xlink:href="#DejaVuSans-6f" transform="translate(53.962891 0)"/>
      <use xlink:href="#DejaVuSans-67" transform="translate(115.144531 0)"/>
      <use xlink:href="#DejaVuSans-61" transform="translate(178.621094 0)"/>
      <use xlink:href="#DejaVuSans-72" transform="translate(239.900391 0)"/>
      <use xlink:href="#DejaVuSans-69" transform="translate(281.013672 0)"/>
      <use xlink:href="#DejaVuSans-74" transform="translate(308.796875 0)"/>
      <use xlink:href="#DejaVuSans-68" transform="translate(348.005859 0)"/>
      <use xlink:href="#DejaVuSans-6d" transform="translate(411.384766 0)"/>
      <use xlink:href="#DejaVuSans-69" transform="translate(508.796875 0)"/>
      <use xlink:href="#DejaVuSans-63" transform="translate(536.580078 0)"/>
      <use xlink:href="#DejaVuSans-20" transform="translate(591.560547 0)"/>
      <use xlink:href="#DejaVuSans-28" transform="translate(623.347656 0)"/>
      <use xlink:href="#DejaVuSans-3b3" transform="translate(662.361328 0)"/>
      <use xlink:href="#DejaVuSans-3d" transform="translate(721.541016 0)"/>
      <use xlink:href="#DejaVuSans-20" transform="translate(805.330078 0)"/>
      <use xlink:href="#DejaVuSans-32" transform="translate(837.117188 0)"/>
      <use xlink:href="#DejaVuSans-2e" transform="translate(900.740234 0)"/>
      <use xlink:href="#DejaVuSans-32" transform="translate(932.527344 0)"/>
      <use xlink:href="#DejaVuSans-29" transform="translate(996.150391 0)"/>
     </g>
    </g>
    <g id="line2d_31">
     <path d="M 65.27 79.265625 
L 77.27 79.265625 
L 89.27 79.265625 
" style="fill: none; stroke: #2ca02c; stroke-width: 2; stroke-linecap: square"/>
    </g>
    <g id="text_18">
     <!-- Exponential -->
     <g transform="translate(98.87 83.465625) scale(0.12 -0.12)">
      <defs>
       <path id="DejaVuSans-78" d="M 3513 3500 
L 2247 1797 
L 3578 0 
L 2900 0 
L 1881 1375 
L 863 0 
L 184 0 
L 1544 1831 
L 300 3500 
L 978 3500 
L 1906 2253 
L 2834 3500 
L 3513 3500 
z
" transform="scale(0.015625)"/>
      </defs>
      <use xlink:href="#DejaVuSans-45"/>
      <use xlink:href="#DejaVuSans-78" transform="translate(63.183594 0)"/>
      <use xlink:href="#DejaVuSans-70" transform="translate(122.363281 0)"/>
      <use xlink:href="#DejaVuSans-6f" transform="translate(185.839844 0)"/>
      <use xlink:href="#DejaVuSans-6e" transform="translate(247.021484 0)"/>
      <use xlink:href="#DejaVuSans-65" transform="translate(310.400391 0)"/>
      <use xlink:href="#DejaVuSans-6e" transform="translate(371.923828 0)"/>
      <use xlink:href="#DejaVuSans-74" transform="translate(435.302734 0)"/>
      <use xlink:href="#DejaVuSans-69" transform="translate(474.511719 0)"/>
      <use xlink:href="#DejaVuSans-61" transform="translate(502.294922 0)"/>
      <use xlink:href="#DejaVuSans-6c" transform="translate(563.574219 0)"/>
     </g>
    </g>
    <g id="line2d_32">
     <path d="M 65.27 96.879375 
L 77.27 96.879375 
L 89.27 96.879375 
" style="fill: none; stroke: #d62728; stroke-width: 2; stroke-linecap: square"/>
    </g>
    <g id="text_19">
     <!-- Gamma 2.2 -->
     <g transform="translate(98.87 101.079375) scale(0.12 -0.12)">
      <defs>
       <path id="DejaVuSans-47" d="M 3809 666 
L 3809 1919 
L 2778 1919 
L 2778 2438 
L 4434 2438 
L 4434 434 
Q 4069 175 3628 42 
Q 3188 -91 2688 -91 
Q 1594 -91 976 548 
Q 359 1188 359 2328 
Q 359 3472 976 4111 
Q 1594 4750 2688 4750 
Q 3144 4750 3555 4637 
Q 3966 4525 4313 4306 
L 4313 3634 
Q 3963 3931 3569 4081 
Q 3175 4231 2741 4231 
Q 1884 4231 1454 3753 
Q 1025 3275 1025 2328 
Q 1025 1384 1454 906 
Q 1884 428 2741 428 
Q 3075 428 3337 486 
Q 3600 544 3809 666 
z
" transform="scale(0.015625)"/>
      </defs>
      <use xlink:href="#DejaVuSans-47"/>
      <use xlink:href="#DejaVuSans-61" transform="translate(77.490234 0)"/>
      <use xlink:href="#DejaVuSans-6d" transform="translate(138.769531 0)"/>
      <use xlink:href="#DejaVuSans-6d" transform="translate(236.181641 0)"/>
      <use xlink:href="#DejaVuSans-61" transform="translate(333.59375 0)"/>
      <use xlink:href="#DejaVuSans-20" transform="translate(394.873047 0)"/>
      <use xlink:href="#DejaVuSans-32" transform="translate(426.660156 0)"/>
      <use xlink:href="#DejaVuSans-2e" transform="translate(490.283203 0)"/>
      <use xlink:href="#DejaVuSans-32" transform="translate(522.070312 0)"/>
     </g>
    </g>
   </g>
  </g>
 </g>
 <defs>
  <clipPath id="p70a9bb3922">
   <rect x="54.47" y="28.32" width="798.73" height="502.12"/>
  </clipPath>
 </defs>
</svg>
