<?xml version="1.0" encoding="UTF-8" standalone="no"?>
<!-- Created with Inkscape (http://www.inkscape.org/) -->

<svg
   width="177.53542mm"
   height="140.49094mm"
   viewBox="0 0 177.53542 140.49094"
   version="1.1"
   id="svg1"
   xml:space="preserve"
   xmlns:inkscape="http://www.inkscape.org/namespaces/inkscape"
   xmlns:sodipodi="http://sodipodi.sourceforge.net/DTD/sodipodi-0.dtd"
   xmlns="http://www.w3.org/2000/svg"
   xmlns:svg="http://www.w3.org/2000/svg"><sodipodi:namedview
     id="namedview1"
     pagecolor="#ffffff"
     bordercolor="#000000"
     borderopacity="0.25"
     inkscape:showpageshadow="2"
     inkscape:pageopacity="0.0"
     inkscape:pagecheckerboard="0"
     inkscape:deskcolor="#d1d1d1"
     inkscape:document-units="mm"
     inkscape:zoom="0.51981271"
     inkscape:cx="157.74912"
     inkscape:cy="-276.06097"
     inkscape:window-width="2560"
     inkscape:window-height="1369"
     inkscape:window-x="-8"
     inkscape:window-y="1072"
     inkscape:window-maximized="1"
     inkscape:current-layer="layer1"><inkscape:page
       x="0"
       y="0"
       width="177.53542"
       height="140.49094"
       id="page2"
       margin="0"
       bleed="0" /></sodipodi:namedview><defs
     id="defs1" /><g
     inkscape:label="图层 1"
     inkscape:groupmode="layer"
     id="layer1"
     transform="translate(-27.773063,-13.403902)"><path
       style="fill:#000000;fill-opacity:1;stroke:none"
       d="m 121.172,13.410554 c 0.96815,-0.119098 1.16226,1.397573 0.23518,1.622204 -1.12866,0.273481 -1.3283,-1.487732 -0.23518,-1.622204 m -33.279104,8.367447 c 1.30481,-0.462875 1.99246,1.581897 0.69922,2.030916 -1.29489,0.449601 -1.95129,-1.586741 -0.69922,-2.030916 m 36.982244,0.786403 c 3.41258,-0.06586 3.33541,5.330859 0,5.330859 -3.29716,0 -3.35826,-5.266054 0,-5.330859 m 10.84792,0.09676 -0.79375,0.529166 0.79375,-0.529166 m 16.40416,1.852083 -0.79375,0.79375 v -1.058333 l 0.79375,0.264583 M 64.814735,26.36533 v 0.529167 h -0.52917 v -0.529163 h 0.52917 m 30.957261,0.915222 c 3.3059,-0.663994 4.459494,4.797769 1.05712,5.373331 -3.56518,0.603113 -4.57809,-4.666139 -1.05712,-5.373331 m 61.646894,1.201445 c -0.80589,1.726865 -0.56943,2.697493 -0.26458,4.497916 -1.04521,-0.11737 -1.98036,-1.243819 -2.92084,-1.181646 -1.20499,0.07965 -2.49757,1.401432 -3.69375,1.770628 -3.78731,1.168921 -6.42741,-0.327305 -9.26041,-2.705648 l -1.32292,2.116666 v -3.96875 l 1.5875,1.322917 c 3.07342,-5.122814 8.41359,-1.377871 12.39051,-0.706368 1.29015,0.217848 2.00168,-1.418874 3.48449,-1.145715 m 18.03759,1.30189 c 0.64822,-0.129061 0.7969,0.97612 0.17273,1.100385 -0.64818,0.129046 -0.7969,-0.976119 -0.17273,-1.100385 m -66.72091,0.28561 v 1.058333 h -1.05833 v -1.058333 h 1.05833 m 9.78958,1.322916 -0.26458,1.058334 h -0.52917 l -0.26458,-0.264584 v -0.529166 l 1.05833,-0.264584 m -53.710415,5.55625 -0.26459,-4.233333 0.26459,-0.264583 c 1.17225,0.528036 1.7464,1.145811 2.11666,2.381249 2.59519,-1.993111 5.9587,-3.394059 9.26042,-2.366748 1.17547,0.36574 3.55991,1.577181 2.88755,3.156413 -1.25779,2.954293 -6.21713,3.069854 -8.70838,2.153421 -0.96174,-0.35379 -1.90006,-1.216834 -2.91042,-1.361916 -0.8438,-0.121165 -1.79187,0.443513 -2.64583,0.535497 m 66.674985,-4.497916 -0.26458,0.264583 0.26458,-0.264583 m -53.093045,1.763894 0.0882,0.176378 -0.0882,-0.176378 m 91.472945,3.702939 c 1.73301,-0.538727 2.4184,2.262991 0.74985,2.774653 -1.73521,0.532105 -2.43136,-2.251946 -0.74985,-2.774653 m 16.70999,0 c 1.00192,-0.370698 1.64557,1.117793 0.65409,1.501749 -1.03617,0.401252 -1.76308,-1.091454 -0.65409,-1.501749 m -31.80655,9.349832 c 0,5.025372 3.93199,6.872772 7.09494,10.308334 4.14722,4.504667 7.34988,9.74485 9.76407,15.356248 8.10167,18.830924 5.07445,42.348762 -8.46891,57.943752 -2.75816,3.17599 -5.91761,6.0776 -9.44844,8.37541 -2.07863,1.35274 -4.87812,2.30506 -6.61458,4.06001 1.05699,1.1e-4 2.23819,-0.13798 3.17011,0.46098 1.53484,0.98644 2.4431,3.98678 0.50528,5.08813 -2.9697,1.6878 -9.07671,0.5363 -12.40664,0.5363 -12.43414,0 -24.89256,0.302 -37.30624,-0.24478 -3.076214,-0.13549 -6.181224,-0.0198 -9.260414,-0.0198 -1.28136,0 -3.01441,0.29559 -4.2217,-0.1964 -3.575581,-1.45705 0.0888,-5.03952 2.10503,-5.62443 V 142.782 c -6.288191,-2.2883 -12.163231,-7.99698 -16.438671,-12.96458 -13.68859,-15.90474 -17.89026,-36.650579 -9.938,-56.356255 2.20113,-5.454383 5.23479,-10.704272 9.19182,-15.077373 2.29308,-2.534196 5.41118,-4.557086 7.48714,-7.22317 2.48823,-3.195558 -5.65726,-7.6833 -0.60961,-9.994948 1.62843,-0.745756 4.30939,-0.248257 6.07399,-0.248257 4.421491,0 8.807661,-0.264584 13.229161,-0.264584 h 39.952074 11.64167 c 1.66395,0 3.98559,-0.411699 5.55523,0.196403 3.34016,1.294026 1.90181,5.821075 -1.05731,6.41818 M 51.585765,42.077423 c 3.35002,-0.519864 4.09686,4.618969 0.79335,5.125479 -3.40072,0.521415 -4.17081,-4.601367 -0.79335,-5.125479 m 10.58314,0.16291 0.26458,1.058334 -1.05833,-0.264584 v -0.529166 l 0.26458,-0.264584 h 0.52917 M 152.92097,45.9445 c -0.49808,-1.500764 -2.38433,-1.058333 -3.70416,-1.058333 h -11.37709 -41.539574 -9.78958 c -0.7751,0 -2.903691,-0.364432 -3.393031,0.408728 -0.74284,1.173668 3.181321,0.914188 3.657611,0.914188 h 12.96459 c 17.724274,0 35.479894,-0.264583 53.181234,-0.264583 m 25.13542,0.529166 -1.32292,0.79375 V 47.532 l 4.49792,2.645833 h 0.26458 c 0.82621,-1.354455 1.84446,-2.355525 3.43959,-2.645833 l 0.26458,5.820833 -3.70417,-1.145101 -5.02708,2.468017 0.26458,1.058334 c -2.49287,-0.0069 -8.10165,-0.82713 -8.63182,-3.96875 -0.70214,-4.160712 7.20827,-5.801568 9.95474,-5.291667 M 165.62097,47.532 h 0.26459 l 0.26458,0.264583 v 0.529167 c -0.59551,-0.125219 -0.82489,-0.227651 -0.52917,-0.79375 m 4.7625,2.38125 -0.52916,1.058333 0.79375,0.264583 0.26458,-1.322916 h -0.52917 M 78.043895,67.640332 c 16.555971,0 33.179355,-0.264583 49.741665,-0.264583 8.23454,0 17.29308,-0.975926 25.4,0.529166 -1.55957,-5.301856 -6.5642,-9.802437 -10.53434,-13.321634 -0.93158,-0.825757 -1.45248,-2.678955 -2.53355,-3.187467 -1.32547,-0.623476 -3.74091,-0.159648 -5.18836,-0.159648 h -12.7 -21.43124 c -2.560664,0 -6.847164,-0.830618 -9.211624,0.159648 -1.46266,0.612576 -2.65562,2.944814 -3.75684,4.073685 -3.355691,3.439987 -8.375211,7.377553 -9.785711,12.170833 m -5.82083,-0.264583 c 2.29871,0.539146 3.20418,-0.927366 4.4579,-2.645833 2.00593,-2.74951 4.16566,-5.269462 6.6299,-7.624115 1.72967,-1.652757 3.947501,-3.15764 4.522621,-5.605051 -2.352301,0.02779 -3.349651,1.891389 -5.027091,3.328317 -3.80594,3.26025 -9.00338,7.588603 -10.58333,12.546682 M 143.13139,51.50075 c 0.24333,2.18714 2.21811,3.650842 3.69477,5.11813 2.13222,2.118669 4.1293,4.457463 6.02581,6.788119 0.97592,1.199345 2.12858,3.446188 3.58801,4.073685 1.58236,0.680369 4.29436,0.159648 6.00599,0.159648 -2.61699,-4.915914 -6.64446,-9.210888 -10.84791,-12.811265 -1.0303,-0.882488 -2.27151,-2.647093 -3.49491,-3.16867 -1.34112,-0.571767 -3.52752,-0.159647 -4.97176,-0.159647 m -87.577075,12.699999 1.05834,-1.852083 c -2.56832,0.364803 -4.1294,-2.073727 -6.35,-1.970084 -0.83406,0.03893 -2.67586,1.569349 -3.36364,0.486502 -0.50787,-0.79958 0.56842,-1.721277 0.67656,-2.485168 0.10358,-0.731625 -0.47521,-1.472488 -0.75251,-2.116667 l 3.70417,0.966479 6.61458,-2.553979 v -0.529166 h -2.91041 c 2.42167,-1.644942 10.98124,1.587984 10.70439,5.027083 -0.26825,3.332257 -6.93747,4.438488 -9.38148,5.027083 m 42.862501,0.529167 c -1.42721,1.839018 -4.76529,-1.727027 -6.35,-2.074405 -0.90869,-0.199197 -1.99104,0.830779 -2.91042,1.016071 0.0523,-2.245147 -0.90516,-8.543535 2.64584,-4.497916 h 0.26458 l 3.43958,-2.116667 -0.79375,-1.322916 c 2.76082,-0.808155 8.230904,2.227884 9.089544,5.027083 0.79474,2.590862 -3.4621,4.258735 -5.385374,3.96875 m 25.135414,-9.260417 -0.52917,1.5875 5.29166,2.342251 3.42081,-0.854777 -0.3738,2.481276 1.18633,2.645833 -4.34174,-0.852548 -3.0668,2.089714 -6.61437,1.144084 0.26459,-0.79375 c -2.6344,-0.269848 -6.0836,-2.687982 -3.99448,-5.507448 1.92341,-2.59582 5.57934,-4.273011 8.75697,-4.282135 m -59.795835,3.704167 0.52917,-1.322917 c -1.19899,-0.184049 -1.30082,0.544928 -0.52917,1.322917 m 74.612495,-0.79375 0.26458,0.264583 -0.79375,1.058333 v -1.322916 h 0.52917 m 59.26667,1.058333 -0.79375,-1.058333 0.79375,1.058333 m -86.51874,-0.264583 -0.26458,1.058333 h -0.26459 v -1.058333 h 0.52917 m 30.69267,0.114948 c 3.76825,-1.024792 4.96152,4.520105 1.32169,5.56891 -3.65139,1.052132 -4.70076,-4.649958 -1.32169,-5.56891 m -40.74684,0.678802 v 1.322916 h 0.26459 l -0.26459,-1.322916 m 14.55209,0 v 1.058333 l 0.79375,-0.264583 v -0.529167 l -0.26459,-0.264583 h -0.52916 m 26.23293,0.464862 c -1.84787,0.778166 -0.40762,3.814156 1.53279,3.041674 2.14536,-0.854066 0.48487,-3.891348 -1.53279,-3.041674 m -38.84474,0.240699 0.0882,0.176378 -0.0882,-0.176378 m -65.158545,4.815581 c 1.39248,0 1.38457,2.255886 0,2.217516 -1.24692,-0.03456 -1.26634,-2.217516 0,-2.217516 m 143.387005,0.828857 v 0.79375 l -0.79375,-0.264583 0.79375,-0.529167 m -23.8125,2.38125 c 1.81723,4.801322 4.75279,8.9771 6.15279,14.022916 3.12481,11.262361 1.28101,24.508219 -5.01381,34.395829 -4.41094,6.92851 -10.80013,12.09371 -18.3369,15.30624 -1.74097,0.74208 -3.45676,1.38929 -5.29166,1.86086 -0.56344,0.1448 -1.67266,0.61325 -2.06033,-0.078 -0.46602,-0.83094 0.55509,-2.39481 0.99302,-3.06619 0.76939,-1.17954 1.98381,-2.43505 3.44856,-2.60949 2.33044,-0.27754 4.23102,1.32563 6.08541,-0.83009 -1.72363,-0.58691 -3.752,-1.393 -4.85437,-2.92104 -0.44004,-0.60994 -1.21982,-3.14692 0.3738,-2.92062 1.2466,0.17702 1.82647,2.20322 3.15766,2.66666 0.87683,-3.05304 -4.14382,-6.15202 -0.79375,-8.20209 1.48839,2.7851 2.9014,5.20108 2.91041,8.46668 2.55892,-1.41101 0.75035,-7.8713 1.3709,-10.28978 0.2852,-1.11156 1.51851,-0.96664 1.90904,-0.0125 0.42271,1.03282 0.0286,2.36604 -0.10494,3.42305 l 2.11667,-1.5875 c 0.64119,2.2674 -1.14289,2.70151 -1.92026,4.54285 -0.58695,1.39026 -0.53497,3.47527 -0.72557,4.98216 h 0.26458 c 2.07558,-3.37547 5.12164,-3.57716 7.40158,-6.87918 7.71739,-11.17701 8.48758,-23.684594 5.26494,-36.512492 -0.87643,-3.488724 -2.26402,-6.842298 -3.86995,-10.054166 -0.55334,-1.106683 -1.0987,-2.785311 -2.23098,-3.432236 -1.21953,-0.696776 -3.14094,-0.176733 -4.44892,-0.05226 -2.62024,0.249371 -5.30759,0.105726 -7.9375,0.285819 -9.27494,0.635168 -19.01908,0.482577 -28.31041,0.284575 -8.70723,-0.18555 -17.488874,-0.511499 -26.193754,-0.525484 -2.227671,-0.0036 -7.505341,-0.977266 -9.363721,0.271931 -1.01457,0.681999 -1.55248,2.379941 -2.07869,3.432235 -1.49422,2.98806 -2.76005,6.042703 -3.67599,9.260416 -3.31774,11.655151 -2.15244,24.381812 4.42565,34.660412 1.84344,2.88048 4.51004,7.00891 7.51775,8.73125 v 0.26458 l -1.05833,0.26459 v 0.26458 l 0.79375,-0.26458 -0.26458,1.05833 -0.52917,-0.52917 -1.05833,0.52917 c 3.6291,4.76625 10.011091,7.79329 15.345831,10.19789 18.178404,8.19382 43.482044,4.8625 58.208114,-8.89865 6.00167,-5.60841 10.0244,-13.13681 12.5228,-20.8784 3.07001,-9.512859 2.33122,-19.627034 -0.38913,-29.104168 -0.69412,-2.418183 -2.14462,-7.846662 -4.29926,-9.320426 -1.14016,-0.779862 -4.08186,-0.204574 -5.45295,-0.204574 m 28.04583,0.115755 c 3.52295,-0.606988 4.33194,4.979703 0.79375,5.589323 -3.52289,0.606972 -4.33194,-4.979702 -0.79375,-5.589323 m -62.17708,2.265495 v 0.264583 c -4.07277,1.23757 -9.30348,1.008789 -13.49374,0.529167 1.86799,-3.020988 10.58112,-2.197362 13.49374,-0.79375 M 49.250255,70.52966 c 0.64821,-0.129062 0.79687,0.976119 0.17271,1.100385 -0.6482,0.129045 -0.79689,-0.97612 -0.17271,-1.100385 m 37.524891,0.550192 -0.26458,1.058333 h -0.26458 v -1.058333 h 0.52916 m 23.018754,0 -0.26458,0.264583 0.26458,-0.264583 m 0.52917,0.529167 0.26458,0.264583 -0.26458,-0.264583 m 42.86249,2.116666 c -1.88574,0.441123 -0.90541,-1.593249 0,0 m -29.10417,-0.79375 c -0.36944,1.111544 -1.21804,1.11156 -1.5875,0 h 1.5875 m 71.96667,0.264584 3.70417,3.439583 c -1.84096,0.981771 -2.63971,1.619119 -3.70417,3.439583 -1.25485,-1.437299 -2.00376,-2.678309 -3.96876,-3.175 l 3.96876,-3.704166 M 88.109706,74.65662 c 2.55129,-0.764666 3.91065,2.994681 1.30719,3.935273 -2.48983,0.899542 -3.873491,-3.166102 -1.30719,-3.935273 m -46.842891,5.154482 -0.26458,-3.704167 c 1.10087,0.170242 1.6346,0.586851 2.11667,1.5875 2.74673,-0.790956 5.18943,-2.536327 8.20208,-2.030512 3.3882,0.568877 4.59618,3.205069 1.05833,4.708191 -4.14172,1.759695 -7.36037,-1.779429 -11.1125,-0.561012 M 127.886,76.834749 c 0.75723,-0.253069 1.10716,0.947891 0.35911,1.190205 -0.77885,0.252294 -1.09942,-0.942788 -0.35911,-1.190205 m -74.183765,0.33052 0.79375,0.793749 -0.79375,-0.793749 m 59.531255,0.529166 -1.05834,1.322917 -0.26458,-1.322917 h 1.32292 m -32.084205,1.104681 c 0.78746,0.128222 0.35604,1.319864 -0.38586,1.078745 -0.7106,-0.230945 -0.25191,-1.182583 0.38586,-1.078745 m 9.330031,1.011986 -0.26458,1.058333 h -0.52917 l -0.26458,-0.264583 v -0.529167 l 1.05833,-0.264583 m 53.181244,0 c -0.32235,1.933829 -1.93383,0.322348 0,0 m -70.114575,10.847916 0.26458,-5.820833 2.91042,2.38125 h 0.26458 l 4.49792,-2.910417 -1.32292,-1.322916 c 1.59825,-0.209355 2.09482,0.7033 3.45,1.287808 2.666681,1.150156 8.229881,3.647048 4.211481,7.00185 -0.56301,0.470045 -1.18891,0.918015 -1.84065,1.256577 -3.478151,1.806818 -6.241241,-1.80207 -9.260411,-2.621336 -0.90637,-0.245947 -2.19854,0.659408 -3.175,0.748017 m 43.391665,-6.085417 -0.52916,-1.322916 c 1.98658,0.218736 4.49911,1.398493 6.34999,2.205873 0.75617,0.329857 1.77891,1.277845 2.62215,1.230642 1.50631,-0.08433 2.39382,-2.114018 4.25701,-2.040105 3.87791,0.153834 5.72615,4.721126 3.99202,7.85338 -0.59956,1.082977 -2.34396,1.931633 -2.40901,3.196252 -0.25694,4.995533 1.47357,9.160853 -2.9098,13.172613 -5.95065,5.44615 -19.75736,5.09642 -24.99434,-1.28741 -2.9067,-3.54324 -2.7583,-8.631494 -1.19552,-12.689579 -4.418204,-1.312291 -5.196214,-7.417812 -1.05814,-9.679141 3.09525,-1.69145 4.2038,1.07894 6.87897,1.065681 2.07516,-0.01029 4.07955,-1.686266 6.35,-1.70529 l -0.79375,-1.322916 3.43958,1.322916 m 35.71874,-0.264583 -0.79375,0.264583 v 0.264584 l 4.23333,2.38125 c 0.29945,-0.810739 2.32494,-3.317417 3.00392,-1.544221 0.37336,0.975069 -0.51996,1.930776 -0.63268,2.867137 -0.10271,0.853162 0.23526,1.78295 0.2746,2.645833 l -2.38125,-1.322916 h -0.26459 c -0.98883,1.280429 -2.37514,2.096997 -3.96875,2.38125 l 0.26459,0.79375 c -1.14704,-7.59e-4 -2.10252,-0.05048 -3.175,-0.49569 -1.52643,-0.633666 -3.84993,-1.42929 -3.84993,-3.47306 0,-2.402227 5.14022,-6.714448 7.28951,-4.7625 m 34.39583,4.233333 v -1.322916 c 1.01693,0.33798 1.01695,0.984936 0,1.322916 m -99.483324,-0.79375 v 0.79375 h 0.79375 v -0.79375 h -0.79375 m 59.002074,0 v 0.79375 h 0.79375 v -0.79375 h -0.79375 M 44.998545,88.143442 c 1.50354,-0.323075 2.00927,1.869217 0.49017,2.15137 -1.45611,0.270462 -1.96105,-1.835305 -0.49017,-2.15137 m 151.049515,4.632242 c -0.82793,1.794949 -0.76774,2.614925 -0.26458,4.497917 -3.65466,-0.681725 -6.73002,2.505338 -10.58334,0.930531 -3.92722,-1.605022 -2.15271,-4.135859 1.05833,-4.962568 2.61491,-0.673231 4.73227,0.691769 7.14375,1.386204 0.44452,-1.276828 1.26415,-2.010343 2.64584,-1.852084 m -158.220825,1.852084 3.43958,2.910416 v 0.264583 l -3.43958,3.439583 -3.43958,-3.704166 3.43958,-2.910416 m 145.520825,0.264583 0.26458,0.79375 h 0.26458 l 0.26459,-0.79375 h -0.79375 m -25.66459,0.264583 c 0.35244,0.848947 0.37503,1.183035 -0.26458,1.852083 -0.35242,-0.848946 -0.37504,-1.183034 0.26458,-1.852083 m -79.639575,0.529167 c -0.32234,1.933861 -1.93386,0.322332 0,0 m 11.112501,2.116666 c 0.33668,-2.011165 2.20871,-0.176539 0,0 m 56.356244,-1.058333 h 0.26458 l -0.52916,1.058333 0.26458,-1.058333 m -2.61827,0.418515 c 1.59705,-0.216767 1.86838,2.224993 0.23702,2.347369 -1.46761,0.110071 -1.64207,-2.156667 -0.23702,-2.347369 M 49.733485,118.17568 h -0.26458 l -0.79375,-3.43958 -0.52917,0.26458 c -1.61006,-3.74221 -1.80179,-8.96767 -0.0578,-12.7 0.54901,-1.17494 2.15252,-5.099636 3.91282,-3.354249 3.5141,3.484349 -2.02937,10.378889 -2.59297,13.937589 -0.22944,1.44878 0.33876,3.68126 0.32543,5.29166 M 109.26859,98.821697 c -2.31869,0.650477 -1.63546,4.619193 0.74088,4.173113 2.13231,-0.40025 1.58887,-4.82669 -0.74088,-4.173113 m 12.96478,0.02124 c -2.27594,0.573269 -1.99518,4.570833 0.52407,4.151883 2.5724,-0.42778 1.97371,-4.781027 -0.52407,-4.151883 m 0.52509,1.076501 0.26458,0.264582 v 0.26459 l -0.26458,0.26458 h -0.26459 l -0.26458,-0.26458 v -0.26459 l 0.52917,-0.264582 m 33.07291,0.529172 2.11667,1.5875 1.05833,-1.05834 -0.52917,1.32292 c 0.36179,1.60909 -1.07438,2.43561 -2.38125,3.10253 -2.1757,1.1103 -5.32532,1.77008 -7.32116,-0.0529 -2.44836,-2.23627 0.59951,-5.20509 3.08783,-5.406204 1.40558,-0.113624 2.61299,0.506624 3.96875,0.504464 m -45.7729,-0.26459 -0.79375,0.52917 0.79375,-0.52917 m -30.687795,0.80334 c 0.79478,-0.11034 0.79911,1.14918 0.0184,1.14532 -0.71956,-0.004 -0.68816,-1.0523 -0.0184,-1.14532 m 13.803251,0.23274 c 0.54094,-0.10753 0.70781,0.73074 0.16699,0.83826 -0.5409,0.10752 -0.70784,-0.73073 -0.16699,-0.83826 m 56.572024,1.08059 -0.26458,1.05834 h 1.05833 l -0.79375,-1.05834 m -9.74078,0.50692 c 0.54091,-0.10752 0.70781,0.73073 0.16698,0.83825 -0.5409,0.10752 -0.70779,-0.73073 -0.16698,-0.83825 m -24.65504,5.5785 -2.91041,-0.79375 c 1.41102,2.71421 5.88329,2.37471 7.14375,-0.26458 -0.75088,0.41589 -2.43028,1.82267 -3.25116,0.89561 -1.24038,-1.40078 3.20969,-2.25443 2.42126,-4.04306 -0.77093,-1.74896 -5.2455,-1.98782 -5.87411,10e-4 -0.41399,1.3098 1.99379,2.92363 2.47067,4.20475 m -33.337505,5.82083 0.26459,-1.05833 -4.49792,-2.15199 -3.175,0.82907 0.75599,-2.64583 -0.47262,-2.48128 3.53308,1.04157 3.85647,-1.73529 c -0.0801,-0.71795 -0.14938,-1.61124 0.81028,-1.71143 1.01893,-0.10639 2.05186,0.83319 2.893881,1.28045 2.77675,1.47499 6.45117,4.07759 2.64482,6.89531 -0.85147,0.63029 -1.93649,1.0406 -2.9094,1.44949 -1.288451,0.54148 -2.357781,0.39362 -3.704171,0.28826 m 110.066655,-9.30594 c 2.01603,0.0942 1.89294,3.36406 -0.25315,3.14458 -1.85478,-0.18969 -1.58344,-3.23039 0.25315,-3.14458 m 12.17085,1.19206 0.0882,0.0882 c -0.13058,0.0435 -0.2928,-0.0882 -0.0882,-0.0882 m -68.52709,1.76388 -0.79375,1.5875 1.85208,-0.52916 -0.79375,1.05833 c 1.39331,3.93579 -2.91544,6.53548 -6.08542,7.77478 -0.91698,0.35849 -2.58073,0.46798 -3.16765,1.33477 -0.8752,1.29256 -0.0498,3.6834 -0.41301,5.17795 -0.37279,1.53382 -1.66459,2.48895 -2.56804,3.70416 -1.72399,2.31895 -1.94804,5.6868 -5.22837,6.03949 -1.17867,0.12672 -3.66487,0.43861 -4.60285,-0.44567 -0.74798,-0.70516 -0.36852,-2.28242 -0.63287,-3.21257 -0.86448,-3.0417 -4.07584,-5.72195 -6.93511,-3.43958 2.67055,-0.84656 4.87557,-0.0201 6.10767,2.64583 0.86846,1.87914 0.86725,5.08621 -1.60996,5.70222 -3.60718,0.89703 -5.86817,-3.99476 -6.3059,-6.75953 -0.25641,-1.61951 -1.06248,-2.84303 0.74986,-3.70518 v -0.52917 l -1.05834,-1.05833 c 5.87963,-0.0694 3.57684,-6.13296 2.11667,-9.26042 h -0.26458 c 0.98484,2.40118 2.85729,5.69765 0.26458,7.67292 l -0.52917,-1.85209 c -0.41498,3.65446 -3.44061,2.23496 -4.66634,-0.52916 -1.276864,-2.87942 -0.20879,-6.20764 1.84208,-8.45117 1.9584,-2.14236 6.40335,1.56573 8.90968,2.13077 4.01569,0.90529 9.40009,0.60325 13.22916,-0.9432 3.26658,-1.31928 7.02337,-3.92842 10.58333,-4.11349 m -47.095824,0.79375 0.52916,1.05834 v -1.05834 h -0.52916 m 109.008324,1.5875 -1.05833,-1.05833 c 0.93843,-0.14469 1.20301,0.11989 1.05833,1.05833 m -39.42292,-0.79375 v 0.52917 l -1.05833,0.52917 c -0.14468,-0.93845 0.11985,-1.20303 1.05833,-1.05834 m -116.416655,1.5875 -1.32292,0.52917 c -0.0387,-1.18753 0.65229,-1.7093 1.32292,-0.52917 m 144.991655,17.4625 c 2.37469,-2.60184 3.56648,-5.97702 5.73326,-8.73125 1.903,-2.41894 8.10439,-6.85328 8.4979,-0.79375 0.63432,9.76756 -11.17385,16.01078 -18.99366,17.4625 0.60949,-2.11583 2.33098,-4.05542 2.21915,-6.35 -0.11238,-2.3058 -1.37636,-4.44175 -2.02826,-6.61458 -1.12866,-3.76198 -1.09999,-8.7491 1.1306,-12.16554 1.95928,-3.00086 3.6363,1.5304 4.14268,3.16971 1.52786,4.94624 -0.27975,9.19087 -0.70167,14.02291 M 95.533956,110.39217 c 1.46961,-0.19955 2.00677,2.20074 0.47405,2.36859 -1.44108,0.15784 -2.01695,-2.15907 -0.47405,-2.36859 m 57.651604,3.81482 v 1.32292 h -1.05834 l 1.05834,-1.32292 m -97.102075,0.52917 c 3.14914,5.97644 -1.0886,10.61008 -1.77451,16.40417 -0.18199,1.53735 0.37845,3.0212 0.71618,4.49792 -6.10611,-0.27904 -12.42778,-5.99656 -15.13903,-11.1125 -0.99901,-1.88506 -2.50518,-5.30434 -0.99811,-7.31729 1.36984,-1.82967 3.96276,-0.44297 5.26554,0.68555 3.23217,2.79987 5.80066,6.94671 7.43201,10.86507 0.75122,-2.42968 1.8543,-4.85808 2.17159,-7.40833 0.28665,-2.30395 -0.13178,-5.40276 2.32633,-6.61459 m 121.443735,0.0882 0.0882,0.0882 c -0.13058,0.0435 -0.29279,-0.0882 -0.0882,-0.0882 m -95.249985,4.6743 c -0.94197,0.14484 -1.16928,-0.13494 -1.32292,-1.05833 l 1.32292,1.05833 m -32.54375,-0.79375 1.85208,6.87917 c -1.13842,-1.29139 -2.98094,-5.36534 -1.85208,-6.87917 m 42.862501,6.61459 h 0.26458 c 0.18526,-1.18781 0.70758,-2.76275 1.69059,-3.54432 0.84804,-0.67425 2.15722,-0.27625 2.1573,0.90359 1.2e-4,1.76646 -4.62684,3.86935 -3.11069,5.71732 0.85393,1.04083 3.8379,-0.95498 5.08363,-0.93767 3.218664,0.0447 4.444204,4.53299 4.497924,7.1215 -4.539644,-0.19794 -11.356414,-3.11667 -14.528404,-6.36063 -0.98567,-1.00801 -3.288681,-3.30513 -2.69177,-4.93214 0.78298,-2.13419 3.74994,2.02857 4.25559,2.56152 0,-1.67739 -0.98772,-4.54496 -0.3685,-6.05011 0.46474,-1.12968 2.14247,-1.19503 2.57969,-0.006 0.50326,1.36829 0.049,3.97464 0.17006,5.52727 m 38.629154,-3.70416 0.26458,0.52916 h -0.52916 l 0.26458,-0.52916 m 47.36042,0.52916 v 1.05834 l -1.32292,-0.26459 v -0.52916 l 1.32292,-0.26459 m -42.59792,1.05834 -0.79375,1.32291 -0.26458,-1.32291 h 1.05833 m 56.62083,1.85208 -1.05833,1.05833 v 0.26458 l 0.52916,0.26459 h -0.52916 l 0.52916,0.79375 -0.79375,-0.26459 0.52917,0.52917 v 0.26458 h -1.05833 v 0.26459 c 1.59549,-0.25951 2.1514,-1.70125 2.38125,-3.175 h -0.52917 m -146.579155,0.26458 c 0.17494,1.61071 0.97312,2.91471 2.64584,3.175 -0.24032,-1.55724 -1.33409,-2.41668 -2.64584,-3.175 m 85.989575,0 v 1.5875 l -1.5875,0.26458 c 0.0887,-1.16265 0.41167,-1.66456 1.5875,-1.85208 m -51.064575,1.05833 v 0.26459 h 1.05833 l -1.05833,-0.26459 m 45.508325,-0.14882 c 2.79956,-0.73239 4.39234,1.9586 3.86545,4.38216 -0.50717,2.33283 -2.63865,4.27564 -4.92378,4.82109 -6.07735,1.4506 -2.43666,-8.28894 1.05833,-9.20325 m 66.14583,-0.11576 -0.26458,0.26458 0.26458,-0.26458 m -0.26458,0.52917 -0.26459,0.26458 0.26459,-0.26458 m -158.749985,1.05833 -0.26459,0.79375 0.26459,-0.79375 m 156.368735,0 -0.26459,0.79375 v 0.26458 h 1.32292 l -1.05833,-1.05833 m -21.43125,19.57917 c 2.10422,-1.60409 3.7281,-3.70084 5.82083,-5.34331 2.07079,-1.62526 4.79141,-3.05615 7.40834,-3.5286 3.0299,-0.54703 1.97084,2.39601 0.75517,3.84381 -0.4981,0.59319 -1.02735,1.16842 -1.59383,1.69692 -5.29582,4.94083 -15.80823,8.06732 -21.91551,3.20257 -1.46851,-1.16976 -4.33204,-2.65638 -4.14514,-4.89746 0.18091,-2.16929 3.09115,-2.69459 4.66389,-1.7794 2.60026,1.51311 2.90935,4.69954 4.24375,7.07005 0.2094,-3.86228 -2.56241,-7.21513 -0.70698,-11.1125 0.87522,-1.83842 6.03542,-5.50076 6.73095,-1.57687 0.44148,2.49057 -2.24134,3.65872 -3.26769,5.54562 -1.11727,2.05403 -0.75768,4.89231 -0.63961,7.14375 0.99322,-1.88449 1.53023,-3.9662 2.61316,-5.82083 1.92432,-3.29557 4.80444,-4.74572 1.88475,-8.46667 1.01091,-1.74886 3.03817,-4.38626 5.0281,-5.09914 3.23068,-1.15739 3.6688,2.67678 3.06067,4.83456 -1.66734,5.91614 -8.89376,8.4135 -9.94085,14.2875 m -36.24792,-18.78542 -0.26458,0.79375 h -0.26458 v -0.79375 h 0.52916 m -60.589575,19.05 c 2.72091,-2.67479 -2.23012,-8.43677 0.037,-11.84582 2.2513,-3.38532 6.83494,2.46283 6.57764,4.96665 1.01248,0 2.20108,-0.15388 3.15009,0.26704 4.390651,1.9474 -2.9168,7.78396 -5.26676,8.14329 -5.9357,0.9076 -13.78721,0.67287 -18.78541,-2.86551 -1.55753,-1.10261 -6.02406,-5.4346 -3.33527,-7.43059 1.29068,-0.95811 3.33119,0.15891 4.3934,0.96648 3.4974,2.65898 6.52625,5.93326 10.05436,8.59221 -0.51854,-5.94668 -7.49359,-8.20641 -7.40343,-14.55208 0.0792,-5.57101 6.05401,-5.3406 8.52975,-1.32272 1.13888,1.8483 -0.64052,4.10614 -0.49405,6.08522 0.22603,3.05419 2.12652,5.90498 2.54273,8.99583 m 132.291665,-17.99167 -0.26458,0.79375 h -0.26458 l -0.26459,-0.79375 h 0.79375 m -165.099995,0.26459 0.26459,1.05833 -0.26459,-1.05833 m 21.69584,0.26458 -0.79375,0.79375 -0.26459,-0.79375 0.26459,-0.26458 0.79375,0.26458 m -8.20209,1.05833 c -0.37837,1.76978 0.58008,3.36521 2.11667,4.23334 l -2.11667,-4.23334 m 131.233325,4.49792 c 1.03298,-0.35515 1.54801,-0.7941 1.85208,-1.85208 -1.17682,0.18715 -1.55488,0.72702 -1.85208,1.85208 m -140.489855,2.09584 c 1.25514,-0.17493 1.47747,1.92746 0.23682,2.12157 -1.30881,0.20477 -1.52182,-1.94248 -0.23682,-2.12157 m -3.97263,0.54999 0.26458,0.52917 h -0.52917 l 0.26459,-0.52917 m 155.369815,0.96891 c 0.99806,-0.37553 1.63933,1.11346 0.65411,1.50178 -1.00795,0.39726 -1.72083,-1.10042 -0.65411,-1.50178 m -7.99691,3.79359 c 2.14168,-0.18635 0.62434,2.03604 0,0 m -135.995825,0.26459 -0.79375,0.79375 0.79375,-0.79375 m 25.13541,0 -1.05833,3.96875 h 0.26458 l 0.79375,-3.96875 m 13.758341,2.64583 h 59.266654 v -0.79375 H 103.97307 93.389736 c -1.29841,0 -3.13957,-0.37987 -3.96875,0.79375 m 94.191654,-0.52917 -0.26458,0.26459 0.26458,-0.26459 m 21.69584,6.35 v 0.26459 l -0.79375,-0.26459 0.26458,0.79375 -1.05833,0.26459 v 0.26458 h 0.52917 v 0.26458 l -38.10001,0.52917 -137.318735,-0.52917 v -0.26458 h 0.79375 v -0.26458 l -1.85209,-0.26459 v -0.26458 h 0.79375 c 0.4858,-3.05476 7.1779,-1.85118 9.525,-1.85208 10.1266,-0.004 20.28513,-0.26459 30.42708,-0.26459 H 168.79597 c 8.78897,0 17.6722,-0.3669 26.44792,0.0911 3.30628,0.17254 7.41604,-0.6275 10.06459,1.49645 m -0.26458,-0.70554 0.0882,0.0882 c -0.1306,0.0435 -0.29278,-0.0882 -0.0882,-0.0882 z m -95.39744,-51.205213 0.26458,0.264583 v 0.26458 l -0.26458,0.26459 h -0.26459 l -0.26458,-0.26459 v -0.26458 l 0.52917,-0.264583"
       id="path4"
       sodipodi:nodetypes="csccsccsccccccccccccccscccssccccsccsccccccccccccccccssssccccccccsccsccscsscsssssccccsssssscssccsccccccccsccsssscccccccccccsccccccccccccscssscsscccsscsccssscsscccssscccccsccscccccscccccccccccsccccccccccccccccccsccccccccccccscccccsccccccssssssscsscccssccsccssssscscsscsccccccccsssssccsccccccscccccccccccccccccccccccsccccssccscccccccccsccccccccccccccccssscccssssssscsscccccccsscccccsscccccccccccccccscccsscccccccccccccccccccccccccscccccsssccsccscccccccccccccsssccccccccsccccccscccccsscccccccccscssccsccccccccssccssscssscccccccsscsccccccccccccccccsscsssscccccccccscssccsccccccccccccsssscsscsccccccccccccccccccccccccccccccccccccccccscccccccccccccccccssscssscssscscsscccccccccsssssccsscccccccccccccccccccccsccccccsccccccccccccccscccccccccccccccccccccssscccccccccccc"
       inkscape:export-filename="path4.png"
       inkscape:export-xdpi="96"
       inkscape:export-ydpi="96" /></g></svg>
