<?xml version="1.0" encoding="UTF-8" standalone="no"?>
<svg
   id="livetype"
   width="119.66407"
   height="40"
   viewBox="0 0 119.66407 40"
   version="1.1"
   sodipodi:docname="download-android-apk.svg"
   inkscape:version="1.4.2 (ebf0e94, 2025-05-08)"
   xmlns:inkscape="http://www.inkscape.org/namespaces/inkscape"
   xmlns:sodipodi="http://sodipodi.sourceforge.net/DTD/sodipodi-0.dtd"
   xmlns="http://www.w3.org/2000/svg"
   xmlns:svg="http://www.w3.org/2000/svg">
  <defs
     id="defs24" />
  <sodipodi:namedview
     id="namedview24"
     pagecolor="#ffffff"
     bordercolor="#000000"
     borderopacity="0.25"
     inkscape:showpageshadow="2"
     inkscape:pageopacity="0.0"
     inkscape:pagecheckerboard="0"
     inkscape:deskcolor="#d1d1d1"
     inkscape:zoom="10.094927"
     inkscape:cx="70.926717"
     inkscape:cy="-5.2006322"
     inkscape:window-width="2560"
     inkscape:window-height="1369"
     inkscape:window-x="-8"
     inkscape:window-y="1072"
     inkscape:window-maximized="1"
     inkscape:current-layer="livetype" />
  <title
     id="title1">Download_on_the_App_Store_Badge_US-UK_RGB_blk_4SVG_092917</title>
  <path
     d="M 110.13477,0 H 9.53468 C 9.16798,0 8.80568,0 8.43995,0.002 8.1338,0.004 7.83009,0.00981 7.521,0.0147 a 13.21476,13.21476 0 0 0 -2.0039,0.17671 6.66509,6.66509 0 0 0 -1.90088,0.627 6.43779,6.43779 0 0 0 -1.61865,1.17866 6.25844,6.25844 0 0 0 -1.17822,1.62109 6.60119,6.60119 0 0 0 -0.625,1.90332 12.993,12.993 0 0 0 -0.1792,2.002 C 0.00587,7.83008 0.00489,8.1377 0,8.44434 V 31.5586 c 0.00489,0.3105 0.00587,0.6113 0.01515,0.9219 a 12.99232,12.99232 0 0 0 0.1792,2.0019 6.58756,6.58756 0 0 0 0.625,1.9043 6.20778,6.20778 0 0 0 1.17822,1.6143 6.27445,6.27445 0 0 0 1.61865,1.1787 6.70082,6.70082 0 0 0 1.90088,0.6308 13.45514,13.45514 0 0 0 2.0039,0.1768 C 7.83009,39.9941 8.1338,39.998 8.43995,39.998 8.80567,40 9.168,40 9.53468,40 h 100.60009 c 0.3594,0 0.7246,0 1.084,-0.002 0.3047,0 0.6172,-0.0039 0.9219,-0.0107 a 13.279,13.279 0 0 0 2,-0.1768 6.80432,6.80432 0 0 0 1.9082,-0.6308 6.27742,6.27742 0 0 0 1.6172,-1.1787 6.39482,6.39482 0 0 0 1.1816,-1.6143 6.60413,6.60413 0 0 0 0.6191,-1.9043 13.50643,13.50643 0 0 0 0.1856,-2.0019 c 0.004,-0.3106 0.004,-0.6114 0.004,-0.9219 0.008,-0.3633 0.008,-0.7246 0.008,-1.0938 V 9.53613 c 0,-0.36621 0,-0.72949 -0.008,-1.09179 0,-0.30664 0,-0.61426 -0.004,-0.9209 a 13.5071,13.5071 0 0 0 -0.1856,-2.002 6.6177,6.6177 0 0 0 -0.6191,-1.90332 6.46619,6.46619 0 0 0 -2.7988,-2.7998 6.76754,6.76754 0 0 0 -1.9082,-0.627 13.04394,13.04394 0 0 0 -2,-0.17676 c -0.3047,-0.00488 -0.6172,-0.01074 -0.9219,-0.01269 -0.3594,-0.002 -0.7246,-0.002 -1.084,-0.002 z"
     style="fill:#a6a6a6"
     id="path1" />
  <path
     d="m 8.44483,39.125 c -0.30468,0 -0.602,-0.0039 -0.90429,-0.0107 A 12.68714,12.68714 0 0 1 5.6714,38.9512 5.88381,5.88381 0 0 1 4.01466,38.4033 5.40573,5.40573 0 0 1 2.61766,37.3867 5.32082,5.32082 0 0 1 1.59715,35.9902 5.72186,5.72186 0 0 1 1.05415,34.333 12.41351,12.41351 0 0 1 0.88765,32.458 C 0.88131,32.2471 0.87301,31.5449 0.87301,31.5449 V 8.44434 c 0,0 0.00884,-0.69141 0.01469,-0.89454 A 12.37039,12.37039 0 0 1 1.05323,5.67773 5.7555,5.7555 0 0 1 1.59669,4.01563 5.37349,5.37349 0 0 1 2.61183,2.61768 5.56543,5.56543 0 0 1 4.01417,1.59521 5.82309,5.82309 0 0 1 5.66749,1.05127 12.58589,12.58589 0 0 1 7.543,0.88721 L 8.44532,0.875 h 102.76855 l 0.9131,0.0127 a 12.38493,12.38493 0 0 1 1.8584,0.16259 5.93833,5.93833 0 0 1 1.6709,0.54785 5.59374,5.59374 0 0 1 2.415,2.41993 5.76267,5.76267 0 0 1 0.5352,1.64892 12.995,12.995 0 0 1 0.1738,1.88721 c 0.003,0.2832 0.003,0.5874 0.003,0.89014 0.008,0.375 0.008,0.73193 0.008,1.09179 V 30.4648 c 0,0.3633 0,0.7178 -0.008,1.0752 0,0.3252 0,0.6231 -0.004,0.9297 a 12.73126,12.73126 0 0 1 -0.1709,1.8535 5.739,5.739 0 0 1 -0.54,1.67 5.48029,5.48029 0 0 1 -1.0156,1.3857 5.4129,5.4129 0 0 1 -1.3994,1.0225 5.86168,5.86168 0 0 1 -1.668,0.5498 12.54218,12.54218 0 0 1 -1.8692,0.1631 c -0.2929,0.0068 -0.5996,0.0107 -0.8974,0.0107 l -1.084,0.002 z"
     id="path2" />
  <g
     id="Android"
     transform="matrix(0.48203382,0,0,0.48203382,-33.041436,-24.780358)">
    <path
       id="Subtract"
       class="st8"
       d="M 114.47,74.78 114,75.47 c 3.53,1.6 5.92,4.64 5.92,8.11 H 96.61 c 0,-3.47 2.39,-6.51 5.93,-8.11 l -0.47,-0.68 -0.47,-0.67 -1.04,-1.52 c -0.13,-0.19 -0.07,-0.44 0.12,-0.56 0.19,-0.12 0.45,-0.07 0.58,0.11 l 1.11,1.63 0.47,0.68 0.47,0.69 c 1.51,-0.57 3.19,-0.89 4.95,-0.89 1.77,0 3.45,0.32 4.95,0.89 l 0.48,-0.69 1.58,-2.31 c 0.12,-0.19 0.38,-0.24 0.57,-0.11 0.19,0.12 0.25,0.37 0.12,0.56 l -1.04,1.52 z M 96.61,85.2 h 0.18 23.14 v 17.83 c 0,1.42 -1.18,2.57 -2.64,2.57 h -1.91 c 0.07,0.21 0.1,0.44 0.1,0.67 v 5.13 c 0,1.34 -1.12,2.43 -2.5,2.43 -1.38,0 -2.5,-1.09 -2.5,-2.43 v -5.13 c 0,-0.24 0.04,-0.46 0.1,-0.67 h -4.64 c 0.06,0.21 0.1,0.44 0.1,0.67 v 5.13 c 0,1.34 -1.12,2.43 -2.5,2.43 -1.38,0 -2.5,-1.09 -2.5,-2.43 v -5.13 c 0,-0.24 0.04,-0.46 0.1,-0.67 h -1.9 c -1.46,0 -2.64,-1.15 -2.64,-2.57 V 85.2 Z m -4.17,0 c -1.38,0 -2.5,1.09 -2.5,2.43 v 10.4 c 0,1.34 1.12,2.43 2.5,2.43 1.38,0 2.5,-1.09 2.5,-2.43 v -10.4 c 0,-1.34 -1.12,-2.43 -2.5,-2.43 z m 29.15,2.43 c 0,-1.34 1.12,-2.43 2.5,-2.43 1.38,0 2.5,1.09 2.5,2.43 v 10.4 c 0,1.34 -1.12,2.43 -2.5,2.43 -1.38,0 -2.5,-1.09 -2.5,-2.43 z m -20.35,-7.29 c -0.69,0 -1.25,-0.54 -1.25,-1.22 0,-0.68 0.56,-1.21 1.25,-1.21 0.69,0 1.25,0.54 1.25,1.21 0,0.67 -0.56,1.22 -1.25,1.22 z m 8.75,-1.22 c 0,0.67 0.56,1.22 1.25,1.22 0.69,0 1.25,-0.54 1.25,-1.22 0,-0.68 -0.56,-1.21 -1.25,-1.21 -0.7,0 -1.25,0.54 -1.25,1.21 z"
       style="clip-rule:evenodd;fill:#ffffff;fill-rule:evenodd" />
  </g>
  <text
     xml:space="preserve"
     style="font-style:normal;font-variant:normal;font-weight:normal;font-stretch:normal;font-size:30.66666667px;line-height:1.25;font-family:Arial;-inkscape-font-specification:Arial;text-align:start;letter-spacing:-20px;writing-mode:lr-tb;direction:ltr;text-anchor:start;fill:#424242;stroke-width:3.9685"
     x="80.972893"
     y="-75.369232"
     id="text24"><tspan
       sodipodi:role="line"
       id="tspan24"
       x="80.972893"
       y="-75.369232" /></text>
  <path
     style="font-size:8px;line-height:1.25;font-family:Arial;-inkscape-font-specification:Arial;letter-spacing:0px;fill:#ffffff;stroke-width:3.9685"
     d="M 35.775066,14.604 V 8.8774376 h 1.972657 q 0.667968,0 1.019531,0.082031 0.492187,0.1132813 0.839844,0.4101563 0.453125,0.3828125 0.675781,0.9804689 0.226562,0.59375 0.226562,1.359375 0,0.652344 -0.152343,1.15625 -0.152344,0.503906 -0.390625,0.835937 -0.238282,0.328125 -0.523438,0.519532 -0.28125,0.1875 -0.683594,0.285156 -0.398437,0.09766 -0.917968,0.09766 z m 0.757813,-0.675781 h 1.222656 q 0.566406,0 0.886719,-0.105469 0.324219,-0.105469 0.515625,-0.296875 0.269531,-0.269531 0.417969,-0.722656 0.152343,-0.457031 0.152343,-1.105469 0,-0.898437 -0.296875,-1.378906 Q 39.138348,9.8344688 38.716473,9.6704063 38.411785,9.5532188 37.736004,9.5532188 h -1.203125 z m 4.667969,-1.398438 q 0,-1.152343 0.640625,-1.707031 0.535156,-0.460937 1.304687,-0.460937 0.855469,0 1.398438,0.5625 0.542968,0.558593 0.542968,1.546875 0,0.800781 -0.242187,1.261718 -0.238281,0.457032 -0.699219,0.710938 -0.457031,0.253906 -1,0.253906 -0.871094,0 -1.410156,-0.558594 -0.535156,-0.558593 -0.535156,-1.609375 z m 0.722656,0 q 0,0.796875 0.347656,1.195313 0.347656,0.394531 0.875,0.394531 0.523438,0 0.871094,-0.398437 0.347656,-0.398438 0.347656,-1.214844 0,-0.769531 -0.351562,-1.164063 -0.347657,-0.398437 -0.867188,-0.398437 -0.527344,0 -0.875,0.394531 -0.347656,0.394531 -0.347656,1.191406 z M 46.67741,14.604 45.407879,10.455563 h 0.726562 l 0.660157,2.394531 0.246093,0.890625 q 0.01563,-0.06641 0.214844,-0.855469 l 0.660156,-2.429687 h 0.722657 l 0.621093,2.40625 0.207032,0.792968 0.238281,-0.800781 0.710937,-2.398437 h 0.683594 L 49.80241,14.604 H 49.071941 L 48.411785,12.119625 48.251629,11.412594 47.411785,14.604 Z m 5.011719,0 v -4.148437 h 0.632812 v 0.589843 q 0.457032,-0.683593 1.320313,-0.683593 0.375,0 0.6875,0.136718 0.316406,0.132813 0.472656,0.351563 0.15625,0.21875 0.21875,0.519531 0.03906,0.195313 0.03906,0.683594 V 14.604 h -0.703125 v -2.523437 q 0,-0.429688 -0.08203,-0.640625 -0.08203,-0.214844 -0.292968,-0.339844 -0.207032,-0.128906 -0.488282,-0.128906 -0.449218,0 -0.777343,0.285156 -0.324219,0.285156 -0.324219,1.082031 V 14.604 Z m 4.433594,0 V 8.8774376 h 0.703125 V 14.604 Z m 1.53125,-2.074219 q 0,-1.152343 0.640625,-1.707031 0.535156,-0.460937 1.304687,-0.460937 0.855469,0 1.398438,0.5625 0.542968,0.558593 0.542968,1.546875 0,0.800781 -0.242187,1.261718 -0.238281,0.457032 -0.699219,0.710938 -0.457031,0.253906 -1,0.253906 -0.871094,0 -1.410156,-0.558594 -0.535156,-0.558593 -0.535156,-1.609375 z m 0.722656,0 q 0,0.796875 0.347656,1.195313 0.347656,0.394531 0.875,0.394531 0.523438,0 0.871094,-0.398437 0.347656,-0.398438 0.347656,-1.214844 0,-0.769531 -0.351562,-1.164063 -0.347657,-0.398437 -0.867188,-0.398437 -0.527344,0 -0.875,0.394531 -0.347656,0.394531 -0.347656,1.191406 z m 6.695312,1.5625 q -0.390625,0.332032 -0.753906,0.46875 -0.359375,0.136719 -0.773437,0.136719 -0.683594,0 -1.050782,-0.332031 -0.367187,-0.335938 -0.367187,-0.855469 0,-0.304687 0.136719,-0.554687 0.140625,-0.253907 0.363281,-0.40625 0.226562,-0.152344 0.507812,-0.230469 0.207032,-0.05469 0.625,-0.105469 0.851563,-0.101562 1.253907,-0.242187 0.0039,-0.144532 0.0039,-0.183594 0,-0.429688 -0.199219,-0.605469 -0.269531,-0.238281 -0.800781,-0.238281 -0.496094,0 -0.734375,0.175781 -0.234375,0.171875 -0.347656,0.613281 l -0.6875,-0.09375 q 0.09375,-0.441406 0.308593,-0.710937 0.214844,-0.273438 0.621094,-0.417969 0.40625,-0.148437 0.941406,-0.148437 0.53125,0 0.863282,0.125 0.332031,0.125 0.488281,0.316406 0.15625,0.1875 0.21875,0.476562 0.03516,0.179688 0.03516,0.648438 v 0.9375 q 0,0.980469 0.04297,1.242187 0.04687,0.257813 0.179687,0.496094 h -0.734375 q -0.109375,-0.21875 -0.140625,-0.511719 z m -0.05859,-1.570312 q -0.382813,0.15625 -1.148438,0.265625 -0.433594,0.0625 -0.613281,0.140625 -0.179688,0.07813 -0.277344,0.230469 -0.09766,0.148437 -0.09766,0.332031 0,0.28125 0.210937,0.46875 0.214844,0.1875 0.625,0.1875 0.40625,0 0.722657,-0.175781 0.316406,-0.179688 0.464843,-0.488282 0.113282,-0.238281 0.113282,-0.703125 z M 69.505535,14.604 v -0.523437 q -0.394531,0.617187 -1.160156,0.617187 -0.496094,0 -0.914063,-0.273437 -0.414062,-0.273438 -0.644531,-0.761719 -0.226562,-0.492188 -0.226562,-1.128906 0,-0.621094 0.207031,-1.125 0.207031,-0.507813 0.621094,-0.777344 0.414062,-0.269531 0.925781,-0.269531 0.375,0 0.667969,0.160156 0.292968,0.15625 0.476562,0.410156 V 8.8774376 h 0.699219 V 14.604 Z m -2.222656,-2.070312 q 0,0.796875 0.335937,1.191406 0.335938,0.394531 0.792969,0.394531 0.460938,0 0.78125,-0.375 0.324219,-0.378906 0.324219,-1.152344 0,-0.851562 -0.328125,-1.25 -0.328125,-0.398437 -0.808594,-0.398437 -0.46875,0 -0.785156,0.382812 -0.3125,0.382813 -0.3125,1.207032 z M 72.505535,14.604 74.704754,8.8774376 H 75.52116 L 77.86491,14.604 H 77.001629 L 76.33366,12.869625 H 73.939129 L 73.310223,14.604 Z m 1.652344,-2.351562 h 1.941406 L 75.501629,10.6665 Q 75.228191,9.9438438 75.095379,9.4790001 74.986004,10.029781 74.786785,10.57275 Z m 4.3125,2.351562 V 8.8774376 h 2.160156 q 0.570313,0 0.871094,0.054687 0.421875,0.070312 0.707031,0.2695312 0.285156,0.1953125 0.457031,0.5507813 0.175782,0.3554684 0.175782,0.7812504 0,0.730468 -0.464844,1.238281 -0.464844,0.503906 -1.679688,0.503906 h -1.46875 V 14.604 Z m 0.757812,-3.003906 h 1.480469 q 0.734375,0 1.042969,-0.273438 0.308594,-0.273437 0.308594,-0.769531 0,-0.359375 -0.183594,-0.6132812 Q 81.696941,9.6860313 81.400066,9.6040001 81.20866,9.5532188 80.693035,9.5532188 H 79.228191 Z M 83.775066,14.604 V 8.8774376 h 0.757813 v 2.8398434 l 2.84375,-2.8398434 h 1.027344 L 86.001629,11.19775 88.509441,14.604 h -1 l -2.039062,-2.898437 -0.9375,0.914062 V 14.604 Z"
     id="text1"
     aria-label="Download APK" />
  <path
     d="m 34.403831,30.496099 4.398438,-11.453125 h 1.632812 l 4.6875,11.453125 h -1.726562 l -1.335938,-3.46875 h -4.789062 l -1.257813,3.46875 z m 3.304688,-4.703125 h 3.882812 l -1.195312,-3.171875 q -0.546875,-1.445312 -0.8125,-2.375 -0.21875,1.101563 -0.617188,2.1875 z m 8.445312,4.703125 v -8.296875 h 1.265625 v 1.179688 q 0.914063,-1.367188 2.640625,-1.367188 0.75,0 1.375,0.273438 0.632813,0.265625 0.945313,0.703125 0.3125,0.4375 0.4375,1.039062 0.07813,0.390625 0.07813,1.367188 v 5.101562 h -1.40625 v -5.046875 q 0,-0.859375 -0.164063,-1.28125 -0.164062,-0.429687 -0.585937,-0.679687 -0.414063,-0.257813 -0.976563,-0.257813 -0.898437,0 -1.554687,0.570313 -0.648438,0.570312 -0.648438,2.164062 v 4.53125 z m 14.28125,0 v -1.046875 q -0.789062,1.234375 -2.320312,1.234375 -0.992188,0 -1.828125,-0.546875 -0.828125,-0.546875 -1.289063,-1.523437 -0.453125,-0.984375 -0.453125,-2.257813 0,-1.242187 0.414063,-2.25 0.414062,-1.015625 1.242187,-1.554687 0.828125,-0.539063 1.851563,-0.539063 0.75,0 1.335937,0.320313 0.585938,0.3125 0.953125,0.820312 v -4.109375 h 1.398438 v 11.453125 z m -4.445312,-4.140625 q 0,1.59375 0.671875,2.382813 0.671875,0.789062 1.585937,0.789062 0.921875,0 1.5625,-0.75 0.648438,-0.757812 0.648438,-2.304687 0,-1.703125 -0.65625,-2.5 -0.65625,-0.796875 -1.617188,-0.796875 -0.9375,0 -1.570312,0.765625 -0.625,0.765625 -0.625,2.414062 z m 7.945312,4.140625 v -8.296875 h 1.265625 v 1.257813 q 0.484375,-0.882813 0.890625,-1.164063 0.414063,-0.28125 0.90625,-0.28125 0.710938,0 1.445313,0.453125 l -0.484375,1.304688 q -0.515625,-0.304688 -1.03125,-0.304688 -0.460938,0 -0.828125,0.28125 -0.367188,0.273438 -0.523438,0.765625 -0.234375,0.75 -0.234375,1.640625 v 4.34375 z m 4.820313,-4.148437 q 0,-2.304688 1.28125,-3.414063 1.070312,-0.921875 2.609375,-0.921875 1.710937,0 2.796875,1.125 1.085937,1.117188 1.085937,3.09375 0,1.601563 -0.484375,2.523438 -0.476562,0.914062 -1.398437,1.421875 -0.914063,0.507812 -2,0.507812 -1.742188,0 -2.820313,-1.117187 -1.070312,-1.117188 -1.070312,-3.21875 z m 1.445312,0 q 0,1.59375 0.695313,2.390625 0.695312,0.789062 1.75,0.789062 1.046875,0 1.742187,-0.796875 0.695313,-0.796875 0.695313,-2.429687 0,-1.539063 -0.703125,-2.328125 -0.695313,-0.796875 -1.734375,-0.796875 -1.054688,0 -1.75,0.789062 -0.695313,0.789063 -0.695313,2.382813 z m 7.984375,-5.6875 v -1.617188 h 1.40625 v 1.617188 z m 0,9.835937 v -8.296875 h 1.40625 v 8.296875 z m 8.929688,0 v -1.046875 q -0.789063,1.234375 -2.320313,1.234375 -0.992187,0 -1.828125,-0.546875 -0.828125,-0.546875 -1.289062,-1.523437 -0.453125,-0.984375 -0.453125,-2.257813 0,-1.242187 0.414062,-2.25 0.414063,-1.015625 1.242188,-1.554687 0.828125,-0.539063 1.851562,-0.539063 0.75,0 1.335938,0.320313 0.585937,0.3125 0.953125,0.820312 v -4.109375 h 1.398437 v 11.453125 z m -4.445313,-4.140625 q 0,1.59375 0.671875,2.382813 0.671875,0.789062 1.585938,0.789062 0.921875,0 1.5625,-0.75 0.648437,-0.757812 0.648437,-2.304687 0,-1.703125 -0.65625,-2.5 -0.65625,-0.796875 -1.617187,-0.796875 -0.9375,0 -1.570313,0.765625 -0.625,0.765625 -0.625,2.414062 z"
     id="text2"
     style="font-size:16px;line-height:1.25;font-family:Arial;-inkscape-font-specification:Arial;letter-spacing:0px;fill:#ffffff;stroke-width:3.9685"
     aria-label="Android" />
</svg>
